<svg width="42" height="46" viewBox="0 0 42 46" fill="none" xmlns="http://www.w3.org/2000/svg">
<path d="M10.9453 42.6143C11.1316 42.6143 11.3025 42.7413 11.3309 42.9217C11.3867 43.2741 11.5149 43.5328 11.7178 43.6977C11.9753 43.9065 12.2945 44.011 12.673 44.011C13.0907 44.011 13.436 43.9184 13.7089 43.7333C13.9818 43.5482 14.1171 43.2563 14.1171 42.8576C14.1171 42.6013 14.0684 42.3901 13.9711 42.224C13.8738 42.0578 13.7445 41.9249 13.5843 41.8253C13.4241 41.7256 13.239 41.6568 13.0301 41.6188C12.8213 41.5808 12.6042 41.5618 12.3811 41.5618H11.8851V40.6221H12.3514C12.527 40.6221 12.6896 40.6114 12.8403 40.5865C12.991 40.5627 13.1251 40.5224 13.2414 40.4654C13.3588 40.4085 13.4478 40.3278 13.5107 40.2234C13.5736 40.1189 13.6056 39.9765 13.6056 39.7962C13.6056 39.5304 13.5226 39.3476 13.3576 39.248C13.1915 39.1483 12.9827 39.0985 12.7299 39.0985C12.438 39.0985 11.9824 39.2148 11.8578 39.7404C11.8174 39.9137 11.6596 40.0394 11.4781 40.0394H10.7827C10.5324 40.0394 10.3342 39.8092 10.3935 39.5719C10.543 38.9668 10.956 38.6298 11.1328 38.4945C11.3511 38.3296 11.5991 38.205 11.8768 38.1243C12.1544 38.0436 12.4475 38.0032 12.7596 38.0032C13.0218 38.0032 13.2924 38.0436 13.5689 38.1243C13.8465 38.205 14.0993 38.3236 14.3271 38.4802C14.5561 38.6369 14.7436 38.8244 14.8883 39.0427C15.0343 39.261 15.1067 39.5126 15.1067 39.7974C15.1067 40.0347 15.0438 40.2601 14.9168 40.4737C14.7899 40.6873 14.6344 40.8511 14.4505 40.965C14.8195 41.156 15.1091 41.4064 15.3191 41.7208C15.5279 42.0341 15.6323 42.3901 15.6323 42.7888C15.6323 43.1685 15.5422 43.5031 15.363 43.7926C15.1826 44.0822 14.9512 44.3242 14.67 44.5188C14.3876 44.7134 14.0743 44.8606 13.729 44.9602C13.3837 45.0599 13.0456 45.1098 12.7157 45.1098C12.3075 45.1098 11.9254 45.0575 11.5706 44.9531C11.2158 44.8487 10.9073 44.6921 10.6439 44.4832C10.422 44.3076 9.96279 43.8425 9.82396 43.0771C9.78124 42.8398 9.96873 42.6167 10.2155 42.6167H10.9453V42.6143Z" fill="white"/>
<path d="M20.2161 40.3646C20.5472 40.3646 20.8842 40.4144 21.2295 40.5141C21.5748 40.6138 21.888 40.7609 22.1704 40.9555C22.4517 41.1501 22.6807 41.3946 22.8563 41.6888C23.0319 41.9831 23.1185 42.3201 23.1185 42.6998C23.1185 43.0605 23.0307 43.388 22.8563 43.6823C22.6819 43.9766 22.4552 44.2281 22.1776 44.437C21.8999 44.6458 21.5866 44.8096 21.2366 44.9282C20.8866 45.0469 20.5365 45.1074 20.1865 45.1074C19.8459 45.1074 19.4864 45.0623 19.1067 44.9709C18.7269 44.8808 18.3769 44.7431 18.0565 44.558C17.7361 44.3729 17.4703 44.1332 17.2615 43.8389C17.0527 43.5458 16.9482 43.1887 16.9482 42.771C16.9482 42.5717 16.985 42.3723 17.0574 42.173C17.1298 41.9736 17.2259 41.7743 17.3422 41.5749C17.4585 41.3756 17.5878 41.1833 17.729 40.9982C17.8702 40.8131 18.0091 40.6351 18.1455 40.4643L19.7961 38.377C19.8779 38.2738 20.0037 38.2133 20.1366 38.2133H20.7525C21.1084 38.2133 21.3102 38.6096 21.0954 38.8873L19.9396 40.3788C19.9788 40.3693 20.0227 40.367 20.0714 40.3717C20.1188 40.3765 20.1675 40.3741 20.2161 40.3646ZM20.0844 44.138C20.5021 44.138 20.8676 44.0146 21.1785 43.7677C21.4893 43.5209 21.6448 43.1744 21.6448 42.7283C21.6448 42.2916 21.4941 41.9475 21.1927 41.6959C20.8913 41.4444 20.5163 41.3186 20.069 41.3186C19.8934 41.3186 19.7166 41.3518 19.5362 41.4183C19.3558 41.4847 19.1885 41.5773 19.0331 41.6959C18.8776 41.8146 18.7507 41.9617 18.6534 42.1374C18.5561 42.313 18.5074 42.5099 18.5074 42.7283C18.5074 42.9371 18.549 43.127 18.632 43.2978C18.7151 43.4687 18.829 43.6135 18.9749 43.7321C19.1209 43.8508 19.2882 43.9457 19.4781 44.0169C19.6691 44.0881 19.8708 44.1285 20.0844 44.138Z" fill="white"/>
<path d="M27.7293 38.1278C28.1375 38.1278 28.5267 38.1824 28.8957 38.2916C29.266 38.4008 29.5935 38.5645 29.8806 38.7828C30.1678 39.0012 30.3932 39.2693 30.5594 39.5873C30.7243 39.9054 30.8074 40.2732 30.8074 40.6909V42.5135C30.8074 42.9312 30.7314 43.3014 30.5807 43.6241C30.43 43.9469 30.2188 44.2186 29.9459 44.4358C29.673 44.6541 29.3478 44.8179 28.9681 44.927C28.5884 45.0362 28.1755 45.0908 27.7281 45.0908C27.32 45.0908 26.9284 45.0338 26.5534 44.9199C26.1784 44.806 25.8509 44.6399 25.5685 44.4215C25.2861 44.2032 25.063 43.9327 24.8969 43.6099C24.732 43.2872 24.6489 42.9122 24.6489 42.485V40.7336C24.6489 40.3159 24.7261 39.9457 24.8827 39.6229C25.0381 39.3002 25.2553 39.0273 25.5318 38.8042C25.8094 38.5811 26.1345 38.4126 26.5095 38.2987C26.8833 38.1848 27.2855 38.1278 27.7127 38.1278H27.7293ZM27.7151 44.0952C28.1233 44.0952 28.4781 43.9766 28.7806 43.7392C29.082 43.5019 29.2422 43.1365 29.2624 42.6428V40.577C29.2624 40.1213 29.1093 39.7677 28.8032 39.5162C28.4971 39.2646 28.134 39.1388 27.7163 39.1388C27.5217 39.1388 27.3318 39.1709 27.1479 39.2314C26.9628 39.2943 26.7978 39.3856 26.6519 39.509C26.5059 39.6324 26.3897 39.7867 26.3019 39.9718C26.214 40.1569 26.1701 40.3681 26.1701 40.6054V42.6416C26.1701 43.0973 26.3208 43.4533 26.6222 43.7096C26.9224 43.9671 27.2867 44.0952 27.7151 44.0952Z" fill="white"/>
<path d="M6.6963 21.2473L0.860621 23.7344C0.463111 23.9041 0.528374 24.4867 0.953175 24.5639L8.73368 25.9913C9.08729 26.0566 9.36258 25.6899 9.20239 25.3684L7.25637 21.455C7.15432 21.2473 6.9087 21.1572 6.6963 21.2473Z" fill="white"/>
<path d="M34.6936 8.40716L23.0815 1.13452C22.671 0.878215 22.1489 0.878215 21.7395 1.13452L10.1275 8.40716C9.75845 8.63855 9.53418 9.04318 9.53418 9.47866V21.9177C9.53418 22.3532 9.75845 22.759 10.1275 22.9892L21.7395 30.2595C21.9448 30.3877 22.1773 30.4517 22.4111 30.4517C22.6449 30.4517 22.8763 30.3877 23.0827 30.2595L34.6947 22.9892C35.0638 22.7578 35.288 22.3532 35.288 21.9177V9.47866C35.2868 9.04318 35.0626 8.63736 34.6936 8.40716ZM32.7582 21.2176L23.6748 26.905V24.4855C23.6748 23.7866 23.1088 23.2206 22.4099 23.2206C21.711 23.2206 21.145 23.7866 21.145 24.4855V26.905L12.0628 21.2176V11.7629L15.072 13.6472C15.6475 14.0079 16.4058 13.8489 16.7878 13.2876C17.1925 12.6943 17.0228 11.8839 16.4141 11.503L13.1806 9.47866L22.4087 3.69875L31.6381 9.47866L28.407 11.503C27.7982 11.8839 27.6286 12.6943 28.0332 13.2876C28.4165 13.8489 29.1735 14.0079 29.749 13.6472L32.7582 11.7629V21.2176Z" fill="white"/>
<path d="M26.2092 14.3117C25.8259 13.7504 25.0689 13.5914 24.4934 13.9521L22.4097 15.2562L20.3261 13.9521C19.7506 13.5914 18.9923 13.7504 18.6103 14.3117C18.2056 14.905 18.3753 15.7154 18.984 16.0963L21.1448 17.449V19.872C21.1448 20.571 21.7108 21.137 22.4097 21.137C23.1086 21.137 23.6747 20.571 23.6747 19.872V17.449L25.8354 16.0963C26.4442 15.7154 26.6138 14.905 26.2092 14.3117Z" fill="white"/>
<path d="M32.0408 37.7132C31.8769 37.7132 31.7441 37.846 31.7441 38.0099C31.7441 38.1737 31.8769 38.3065 32.0408 38.3065C32.2046 38.3065 32.3374 38.1737 32.3374 38.0099C32.3374 37.846 32.2046 37.7132 32.0408 37.7132Z" stroke="white" stroke-width="2" stroke-miterlimit="10"/>
<path d="M37.6063 22.8825C39.1608 24.0821 40.0507 25.4787 40.0507 26.9691C40.0507 31.4414 32.0341 35.0676 22.145 35.0676C12.2559 35.0676 4.23926 31.4426 4.23926 26.9691C4.23926 25.7125 4.87171 24.5235 6.00135 23.4615" stroke="white" stroke-width="2" stroke-miterlimit="10" stroke-linecap="round"/>
</svg>
