<svg width="41" height="14" viewBox="0 0 41 14"  xmlns="http://www.w3.org/2000/svg">
<path d="M1.2915 2.2094C1.44813 2.28857 1.61371 2.34912 1.78153 2.35145C1.98962 2.35377 2.17534 2.29323 2.3521 2.20241C2.27379 2.16516 2.18876 2.13721 2.1015 2.12324C1.8218 2.10229 1.5533 2.1279 1.2915 2.2094Z" />
<path fill-rule="evenodd" clip-rule="evenodd" d="M32.0669 0.374462C33.2528 0.358162 34.4409 0.369805 35.6223 0.453635C36.0222 0.482271 36.4131 0.54221 36.8073 0.602655C36.8939 0.615938 36.9807 0.629246 37.0678 0.642251C37.5197 0.708982 37.9736 0.763774 38.4276 0.818583C38.9559 0.882353 39.4843 0.946147 40.0102 1.0288C39.9552 1.42895 39.8855 1.82718 39.8161 2.22348C39.8092 2.26305 39.8023 2.3026 39.7954 2.34213C39.7785 2.43812 39.7624 2.53586 39.7462 2.63451C39.683 3.01927 39.6175 3.41794 39.4911 3.7812C39.104 4.02338 38.869 4.27254 38.6564 4.69401C38.4394 5.12713 38.294 5.59751 38.1642 6.06556C37.9705 6.76926 37.8325 7.4877 37.6945 8.20585C37.6348 8.51669 37.575 8.82747 37.5108 9.13698C37.4325 9.5212 37.3251 9.88213 37.1931 10.2501C37.1569 10.3498 37.1219 10.4505 37.0869 10.5513C36.9209 11.0299 36.7536 11.5122 36.4413 11.9103C36.0698 12.383 35.4791 12.6881 34.9488 12.9256C34.2932 13.2213 33.575 13.3727 32.8657 13.4402C30.25 13.6801 27.2584 13.573 25.1707 11.731C24.6561 11.2793 24.1817 10.746 23.7857 10.1779C23.3762 9.59106 23.1167 8.90878 22.8952 8.2265C22.8318 8.03209 22.7704 7.83759 22.7091 7.64363C22.3486 6.50176 21.994 5.37896 21.2864 4.4076C21.2796 4.38198 21.2662 4.35404 21.2461 4.33075C21.217 4.29815 21.1901 4.27021 21.1611 4.24227C21.1543 4.23295 21.1499 4.22597 21.1432 4.21665C21.1185 4.18638 21.0939 4.17008 21.0671 4.16076C20.8456 3.99543 20.6017 3.96749 20.2839 3.96749C19.9036 3.96516 19.5523 4.06064 19.2524 4.30747C18.9455 4.56102 18.7783 4.98402 18.6283 5.36369C18.6034 5.42686 18.5789 5.48882 18.5543 5.54861C18.3895 5.94788 18.2386 6.35309 18.0877 6.7581C17.9887 7.02391 17.8897 7.28964 17.7868 7.55353C16.9724 9.63763 15.9453 11.8428 13.8913 12.8441C13.1372 13.3285 12.1952 13.4705 11.3315 13.559C10.2664 13.6684 9.18569 13.6475 8.11838 13.5636C7.36209 13.4845 6.61027 13.368 5.88307 13.1305C5.23642 12.9186 4.54054 12.567 4.16911 11.9499C3.89242 11.4921 3.67948 10.9845 3.47043 10.4862C3.44449 10.4244 3.41861 10.3627 3.39268 10.3013C3.37712 10.2641 3.3615 10.2268 3.34586 10.1895C3.19502 9.82966 3.04177 9.46407 2.91608 9.09274C2.7142 8.4362 2.53308 7.77298 2.35204 7.11008C2.14782 6.36228 1.9437 5.61489 1.71004 4.87797C1.58026 4.46814 1.36098 4.15145 0.9627 4.00941C0.939092 4.00111 0.915756 3.99339 0.892826 3.9858C0.741895 3.93583 0.608551 3.89169 0.530853 3.72997C0.458959 3.58034 0.433025 3.39742 0.409618 3.23233C0.408257 3.22273 0.406903 3.21318 0.40555 3.20371C0.331697 2.69889 0.344722 2.18883 0.35773 1.67942C0.362063 1.50975 0.366394 1.34015 0.367512 1.17084C1.04639 0.967276 1.77786 0.902258 2.48444 0.839452C2.60228 0.828978 2.71943 0.818565 2.83553 0.807582C4.05947 0.69348 5.28788 0.621294 6.5163 0.567736C7.46949 0.525821 8.42269 0.488564 9.37588 0.497878C11.1928 0.514178 12.9873 0.781967 14.7729 1.11496C16.225 1.38507 17.6772 1.65752 19.1271 1.94394C19.7939 2.07434 20.4629 2.16748 21.1432 2.12324C21.8636 2.079 22.5685 1.87408 23.2554 1.65752C23.2711 1.65286 23.2845 1.64588 23.2957 1.63889C24.0213 1.44182 24.7704 1.31505 25.5089 1.19009C25.6518 1.16592 25.7942 1.14182 25.936 1.11729C26.4682 1.02478 27.0015 0.939404 27.5348 0.854013C28.1426 0.756687 28.7505 0.659347 29.3572 0.551436C30.2227 0.397922 31.1072 0.386672 31.9841 0.375519L32.0669 0.374462ZM2.78854 2.37939C2.82658 2.3561 2.84895 2.3235 2.86238 2.2909C2.90042 2.23036 2.90042 2.15118 2.82658 2.09064C2.64534 1.93695 2.43724 1.81587 2.20901 1.76929C2.19335 1.76231 2.17769 1.75998 2.15979 1.75765C2.15308 1.75532 2.14636 1.75532 2.13965 1.75532C2.10161 1.75066 2.06357 1.74601 2.0233 1.74601C2.02106 1.74601 2.01882 1.74659 2.01659 1.74717C2.01435 1.74775 2.01211 1.74834 2.00987 1.74834C1.59369 1.73436 1.19764 1.82052 0.817259 2.00914C0.763558 2.03708 0.736707 2.07667 0.727757 2.12091C0.689719 2.19776 0.696431 2.29788 0.792646 2.35377C1.1059 2.53307 1.41916 2.69375 1.7794 2.72402C2.13965 2.75429 2.49095 2.56335 2.78854 2.37939ZM16.5875 7.59312C16.7643 6.95508 16.8538 6.2891 16.8896 5.62778C16.9097 5.27677 16.903 4.92808 16.8963 4.57707L16.8963 4.57526C16.89 4.28591 16.8797 4.01513 16.7758 3.75516C16.844 4.0325 16.8389 4.34266 16.8342 4.63723C16.8328 4.72153 16.8315 4.80455 16.8319 4.88516C16.8319 5.33944 16.8072 5.79372 16.7625 6.24542C16.6752 7.11527 16.4694 7.97479 16.1539 8.76978C16.1446 8.79313 16.1352 8.81643 16.1257 8.8397C16.314 8.44069 16.4687 8.02343 16.5875 7.59312ZM6.94999 12.4114C6.64968 12.3305 6.35724 12.2246 6.08669 12.078C4.84708 11.4097 4.22057 10.0847 3.79096 8.76208C3.78425 8.75043 3.77977 8.73646 3.77754 8.72016C3.77306 8.70619 3.77082 8.69222 3.76859 8.67825C3.55602 7.69325 3.36359 6.68729 3.35016 5.67435C3.33674 4.53334 3.55826 3.28987 4.39957 2.48184C4.8316 2.0673 5.34436 1.80985 5.90055 1.63992C5.80981 1.68213 5.72304 1.72748 5.64011 1.77581C4.39604 5.20107 5.11241 10.1298 6.94999 12.4114ZM37.5466 1.65053C37.4862 1.67615 37.4594 1.72039 37.4526 1.76696C37.4213 1.84381 37.4325 1.93928 37.5198 1.99517C37.8263 2.19077 38.1284 2.36076 38.4886 2.41199C38.8444 2.46089 39.2046 2.28391 39.5112 2.11625C39.5649 2.08598 39.5917 2.04407 39.5985 1.9975C39.6164 1.94161 39.6074 1.87874 39.5515 1.82518C39.3747 1.66218 39.1711 1.5341 38.9429 1.47822L38.9428 1.47821C38.9294 1.47355 38.916 1.4689 38.9003 1.46658C38.8959 1.46425 38.8891 1.46425 38.8847 1.46425C38.8444 1.45726 38.8041 1.45028 38.7638 1.44795H38.7482C38.332 1.41302 37.9382 1.48288 37.5466 1.65053ZM27.0351 1.58082C27.0286 1.58355 27.0221 1.58629 27.0155 1.58904C26.8824 1.64502 26.7574 1.70743 26.6401 1.77581C25.4388 5.08324 26.0654 9.79252 27.7644 12.1667C27.5513 12.08 27.342 11.983 27.1375 11.8754C25.9919 11.2723 24.9895 10.3385 24.4077 9.13232C23.6067 7.47436 23.459 5.6208 23.544 3.79285C23.544 3.79052 23.544 3.78586 23.5463 3.78353C23.5508 3.51574 23.5821 3.26658 23.7477 3.05002C23.9356 2.80552 24.1482 2.58896 24.3965 2.40966C24.8687 2.06968 25.4169 1.85778 25.9785 1.73902C26.328 1.66524 26.681 1.61664 27.0351 1.58082ZM4.00059 5.38111C3.99662 5.73357 4.013 6.09212 4.04334 6.44954C4.01882 6.09543 4.00367 5.73724 4.00059 5.38111ZM25.0006 5.38111C24.9966 5.73357 25.013 6.09212 25.0433 6.44954C25.0188 6.09543 25.0037 5.73724 25.0006 5.38111Z" />
<path d="M39.0768 1.92301C39.0007 1.87876 38.9201 1.84616 38.8351 1.82986C38.5554 1.79493 38.2802 1.80425 38.0139 1.87178C38.1661 1.95793 38.3272 2.03012 38.4905 2.03944C38.7031 2.05574 38.891 2.00451 39.0768 1.92301Z" />
<path d="M40.2606 0.695885C39.3186 0.539869 38.3676 0.446725 37.4211 0.320981C36.8953 0.251123 36.3784 0.146336 35.8504 0.102092C34.6935 0.00196252 33.5278 -0.00502328 32.3687 0.00196252C31.4222 0.00661972 30.4422 -0.00968048 29.5024 0.150993C28.4441 0.332624 27.3835 0.502611 26.3229 0.679585C25.0855 0.88683 23.7967 1.05682 22.6018 1.46665C21.8813 1.66225 21.1608 1.78567 20.4023 1.75773C19.4446 1.72047 18.4668 1.44802 17.5248 1.27105C15.6229 0.914774 13.7322 0.502611 11.8101 0.279066C9.44056 0.00661973 7.03744 0.146336 4.66564 0.297695C3.76838 0.353581 2.87336 0.425768 1.98058 0.525897C1.36973 0.595755 0.734262 0.656299 0.145786 0.849573C0.130124 0.856559 0.116698 0.863544 0.105511 0.87053C0.0518093 0.898473 0.013771 0.949703 0.013771 1.02887C0.0160086 1.74841 -0.0354551 2.46329 0.0473342 3.1805C0.0808975 3.47856 0.127886 3.82552 0.313603 4.0677C0.41653 4.20276 0.566446 4.2633 0.718599 4.31686C0.99158 4.41466 1.15045 4.50082 1.29141 4.77792C1.44804 5.08762 1.51069 5.47184 1.60914 5.80716C1.72326 6.19138 1.8329 6.57793 1.9403 6.96448C2.11035 7.56758 2.2737 8.17535 2.45046 8.77613C2.4527 8.78311 2.4527 8.7901 2.45494 8.79708C2.49074 8.92748 2.53101 9.05789 2.57576 9.18596C2.58248 9.20459 2.58695 9.22322 2.59143 9.24185C2.5959 9.25349 2.60038 9.2628 2.60485 9.27212C2.74806 9.68195 2.92035 10.0848 3.08816 10.483C3.32982 11.0651 3.57371 11.6706 3.90711 12.2015C4.2942 12.8209 4.97442 13.1818 5.62331 13.4263C6.35946 13.7034 7.14708 13.8245 7.92351 13.9107C7.93693 13.9153 7.95259 13.92 7.96826 13.92C8.01525 13.9247 8.06447 13.927 8.11146 13.9316C8.12489 13.934 8.13831 13.934 8.15174 13.9363C8.15845 13.9363 8.16292 13.9363 8.16964 13.9363C9.28841 14.0225 10.4161 14.0294 11.5327 13.906C12.3964 13.8106 13.3227 13.6476 14.0723 13.1632C15.878 12.283 16.8804 10.5435 17.6792 8.7249C18.1804 7.58388 18.5608 6.39164 19.071 5.25528C19.2477 4.86175 19.4379 4.51246 19.8608 4.38672C20.0465 4.33083 20.2435 4.33316 20.4336 4.33781C20.6484 4.34247 20.7782 4.3774 20.9102 4.50082C21.8858 5.74662 22.1834 7.29979 22.7048 8.77147C23.1814 10.1197 24.0361 11.2491 25.1056 12.1503C26.0454 12.942 27.1552 13.4054 28.3344 13.6359C29.8023 13.9223 31.3283 13.9386 32.814 13.8106C32.8229 13.8106 32.8319 13.8129 32.8408 13.8106C32.8789 13.8059 32.9169 13.8012 32.955 13.7989C32.9975 13.7943 33.0422 13.7919 33.0847 13.7873C33.0982 13.7849 33.1116 13.7826 33.125 13.778C34.293 13.6313 35.4655 13.247 36.3941 12.4763C36.8192 12.1223 37.0721 11.6124 37.269 11.0977C37.4457 10.6343 37.6314 10.1616 37.7523 9.67729C37.9984 8.69463 38.1371 7.68401 38.3698 6.69669C38.4907 6.18672 38.6316 5.68142 38.8218 5.19707C38.9068 4.98051 39.012 4.77093 39.1351 4.57533C39.2805 4.34247 39.455 4.23303 39.681 4.09331C39.69 4.08633 39.6989 4.08167 39.7056 4.07468C39.7459 4.05605 39.7817 4.02113 39.8019 3.9699C39.9943 3.47158 40.0547 2.89641 40.1487 2.37248C40.2359 1.87649 40.3232 1.37816 40.3881 0.877516C40.3948 0.828615 40.3836 0.789029 40.3635 0.761086C40.3434 0.728486 40.3098 0.7052 40.2606 0.695885ZM39.7952 2.34221C39.7124 2.81491 39.6519 3.3272 39.4908 3.78128C39.106 4.02345 38.8688 4.27261 38.6562 4.69409C38.4392 5.12721 38.2938 5.59759 38.164 6.06564C37.8843 7.07392 37.7232 8.11248 37.5106 9.13706C37.4301 9.52128 37.3249 9.88221 37.1929 10.2501C36.9848 10.823 36.8214 11.4284 36.4411 11.9104C36.0696 12.3831 35.4789 12.6882 34.9486 12.9257C34.293 13.2214 33.5748 13.3705 32.8655 13.4403C30.2498 13.6802 27.2582 13.573 25.1705 11.7311C24.6559 11.277 24.1815 10.7438 23.7855 10.1779C23.376 9.59114 23.1165 8.90886 22.8949 8.22658C22.4609 6.88763 22.114 5.54636 21.2861 4.40767C21.2794 4.38206 21.266 4.35644 21.2459 4.33083C21.219 4.29823 21.1899 4.27029 21.1608 4.24234C21.1541 4.23303 21.1497 4.22604 21.1429 4.21673C21.1206 4.18878 21.0937 4.17016 21.0669 4.16084C20.8454 3.99551 20.5992 3.96757 20.2837 3.96757C19.9033 3.96524 19.552 4.06071 19.2522 4.30754C18.8942 4.60328 18.7264 5.12721 18.5541 5.54869C18.2834 6.21001 18.0484 6.88763 17.7866 7.55361C16.9744 9.63771 15.9451 11.8429 13.891 12.8442C13.1392 13.3285 12.1972 13.4706 11.3313 13.5591C10.264 13.6685 9.18548 13.6476 8.11817 13.5637C7.36188 13.4846 6.61007 13.3681 5.88286 13.1306C5.23621 12.9187 4.54257 12.5671 4.1689 11.95C3.85788 11.4354 3.62741 10.8579 3.39247 10.3014C3.22689 9.9055 3.0546 9.50265 2.91587 9.09282C2.48402 7.69798 2.15063 6.27055 1.70983 4.87805C1.58006 4.46822 1.36078 4.15153 0.962492 4.00948C0.783488 3.94661 0.620147 3.91634 0.530645 3.73005C0.454568 3.57171 0.429955 3.3761 0.405342 3.20379C0.30689 2.53082 0.362829 1.84854 0.367304 1.17092C1.1594 0.933402 2.02309 0.884502 2.83532 0.809987C4.05926 0.695885 5.28767 0.623699 6.51609 0.570141C7.46705 0.528226 8.42248 0.490968 9.37568 0.500283C11.1926 0.516583 12.9871 0.784372 14.7726 1.11736C16.2248 1.38515 17.677 1.6576 19.1269 1.94634C19.7937 2.07907 20.4627 2.16989 21.1429 2.12565C21.8634 2.07907 22.5683 1.87649 23.2552 1.65993C23.2709 1.65527 23.2843 1.64828 23.2955 1.6413C24.1614 1.40611 25.0609 1.27105 25.9358 1.11969C27.0747 0.921759 28.2181 0.756429 29.357 0.553841C30.2498 0.395496 31.1627 0.38851 32.0667 0.376867C33.2503 0.360567 34.4385 0.374538 35.6221 0.456039C36.1099 0.490968 36.5843 0.572469 37.0676 0.644656C38.0476 0.789029 39.0321 0.877516 40.01 1.0312C39.9495 1.46898 39.8712 1.90676 39.7952 2.34221Z" />
<path d="M16.7575 3.7067C16.7531 3.6904 16.7464 3.6741 16.7374 3.6578C16.7284 3.64383 16.7195 3.62986 16.7105 3.61356C16.7083 3.6089 16.7061 3.60192 16.7016 3.59726C16.6971 3.59027 16.6926 3.58329 16.6882 3.57863C16.3548 3.02675 15.9386 2.55172 15.4038 2.20243C14.8534 1.84382 14.2112 1.66685 13.5802 1.54809C11.9535 1.24072 10.2642 1.1173 8.61509 1.20346C7.77601 1.24537 6.93693 1.36413 6.12023 1.57836C5.48253 1.74602 4.89181 2.01381 4.40179 2.48186C3.55823 3.28988 3.33895 4.53568 3.35238 5.67437C3.36357 6.68731 3.55823 7.69327 3.7708 8.67826C3.77304 8.69223 3.77528 8.70621 3.77975 8.72018C3.78199 8.73648 3.7887 8.75045 3.79318 8.76209C4.22055 10.0824 4.8493 11.4074 6.0889 12.078C6.68185 12.397 7.37997 12.5251 8.03557 12.6206C8.76949 12.7277 9.50788 12.7603 10.2463 12.7184C11.6179 12.6415 13.0365 12.2853 14.1374 11.3957C15.3255 10.434 16.1758 9.09275 16.5897 7.59314C16.7665 6.9551 16.8538 6.28912 16.8918 5.6278C16.9119 5.27851 16.9052 4.92689 16.8985 4.5776C16.8918 4.2679 16.8806 3.98148 16.7575 3.7067ZM16.5472 5.0503C16.5494 5.46014 16.5226 5.86997 16.4778 6.27748C16.3906 7.06221 16.187 7.83764 15.8692 8.55485C15.2427 9.97762 14.0971 11.2444 12.6897 11.8265C11.3113 12.397 9.74953 12.4599 8.29289 12.2853C7.58806 12.2014 6.82953 12.064 6.19407 11.7217C5.55636 11.3771 5.09095 10.7926 4.7419 10.1523C4.47787 9.67025 4.28767 9.15097 4.11986 8.62703C3.63431 6.37528 3.08611 3.08031 5.73089 2.07668C6.53865 1.76931 7.44262 1.65986 8.29289 1.59233C9.16553 1.52248 10.0449 1.53878 10.9198 1.59466C11.7454 1.64822 12.5733 1.74602 13.3923 1.88574C14.0568 1.99984 14.7102 2.18846 15.283 2.56103C15.7506 2.86608 16.1109 3.30851 16.3973 3.79286C16.6009 4.15845 16.5472 4.64047 16.5472 5.0503Z" />
<path d="M36.9983 3.94189C36.9804 3.7067 36.9424 3.46685 36.8641 3.24331C36.7746 2.99182 36.5217 2.75663 36.3405 2.575C35.9445 2.17681 35.4477 1.91833 34.9241 1.75533C34.2305 1.5411 33.472 1.47823 32.7537 1.41303C31.89 1.33385 31.0241 1.32221 30.1582 1.35248C29.3974 1.3781 28.6411 1.46193 27.8826 1.51083C27.2449 1.55274 26.6049 1.60397 25.9762 1.7367C25.4146 1.85546 24.8664 2.06736 24.3942 2.40734C24.1481 2.58664 23.9333 2.8032 23.7453 3.0477C23.5798 3.26426 23.5484 3.51342 23.544 3.78121C23.544 3.78354 23.5417 3.7882 23.5417 3.79053C23.4567 5.61848 23.6044 7.46971 24.4054 9.13C24.9872 10.3339 25.9896 11.27 27.1352 11.8731C28.2988 12.4855 29.6167 12.7533 30.9145 12.7393C32.2995 12.723 33.7852 12.3458 34.9778 11.603C36.1391 10.8788 36.6269 9.39779 36.844 8.08214C36.967 7.34164 37.0073 6.5895 37.0207 5.83969C37.0319 5.23193 37.0699 4.57992 36.9961 3.96983C36.9983 3.96051 36.9983 3.9512 36.9983 3.94189ZM36.6582 6.24021C36.6336 7.08317 36.5508 7.92379 36.3517 8.74346C36.166 9.50957 35.846 10.278 35.3224 10.8602C34.7586 11.4865 33.8814 11.7567 33.1229 12.0175C30.6392 12.8721 27.5179 12.269 25.6584 10.3129C24.0675 8.63867 23.8035 6.13775 23.8953 3.89299C23.8975 3.87901 23.8997 3.86737 23.8997 3.85107C23.902 3.48781 23.9848 3.30385 24.2242 3.04305C24.4077 2.84512 24.6225 2.68444 24.8485 2.54705C25.2982 2.27461 25.8151 2.13955 26.323 2.04408C26.8667 1.94395 27.4194 1.91135 27.9676 1.87409C28.6568 1.82752 29.3459 1.75766 30.0351 1.72739C31.4917 1.66219 32.9685 1.73204 34.4028 2.00915C34.9062 2.10695 35.3828 2.28858 35.8057 2.5913C36.025 2.74964 36.213 2.95223 36.383 3.16413C36.515 3.32714 36.5799 3.50411 36.6135 3.69971C36.6068 3.72533 36.6045 3.7556 36.6112 3.7882C36.6829 4.1631 36.6605 4.55896 36.6672 4.94085C36.6739 5.37397 36.6717 5.80709 36.6582 6.24021Z" />
</svg>
