<svg width="42" height="15" viewBox="0 0 42 15"  xmlns="http://www.w3.org/2000/svg">
<path d="M2.05615 3.11615C2.21268 3.19369 2.37884 3.25754 2.54499 3.25982C2.75209 3.26211 2.93751 3.20053 3.11571 3.11159C3.03625 3.07282 2.95196 3.04317 2.86286 3.03177C2.58834 3.00896 2.31863 3.03405 2.05615 3.11615Z" />
<path d="M36.3907 1.41939C35.2084 1.33501 34.0212 1.32132 32.8364 1.33273C31.9334 1.34185 31.0207 1.34641 30.1273 1.50377C28.9883 1.70446 27.8444 1.86866 26.703 2.0625C25.8289 2.21302 24.9282 2.34529 24.0613 2.57791C24.0493 2.58475 24.0348 2.5916 24.0204 2.59616C23.3341 2.81281 22.6261 3.0135 21.9061 3.05911C21.2246 3.10016 20.5575 3.00894 19.8905 2.87667C18.4432 2.58703 16.9912 2.31337 15.5391 2.04198C13.7571 1.70902 11.9631 1.43991 10.1474 1.41939C9.19376 1.41026 8.24016 1.44675 7.28896 1.48552C6.06083 1.53798 4.83271 1.60639 3.60699 1.71814C2.79305 1.7934 1.93096 1.84129 1.13869 2.07619C1.13147 2.75123 1.07368 3.43312 1.16759 4.10361C1.19167 4.27693 1.21575 4.47078 1.2904 4.63042C1.3795 4.81742 1.54325 4.84707 1.72145 4.91093C2.11879 5.0546 2.33792 5.36932 2.46555 5.77754C2.90142 7.1664 3.22892 8.58947 3.65515 9.98289C3.79241 10.3934 3.96339 10.7948 4.12714 11.1893C4.35831 11.7435 4.58708 12.3205 4.89532 12.8359C5.26616 13.4516 5.95728 13.8051 6.60506 14.0149C7.3299 14.2521 8.08363 14.3684 8.83736 14.4505C9.90415 14.5372 10.983 14.5577 12.0498 14.4505C12.9143 14.3639 13.8558 14.2225 14.612 13.7413C16.6709 12.7469 17.7064 10.5485 18.5275 8.47088C18.79 7.80724 19.0284 7.13219 19.3029 6.47311C19.4763 6.05577 19.6473 5.53124 20.0061 5.23705C20.3071 4.99075 20.6587 4.89724 21.0392 4.89952C21.357 4.9018 21.6002 4.92917 21.8218 5.09337C21.8483 5.10249 21.8748 5.11846 21.8964 5.1481C21.9037 5.15723 21.9085 5.16407 21.9157 5.17319C21.9446 5.20056 21.9711 5.22792 22 5.26213C22.0193 5.28722 22.0337 5.3123 22.0385 5.33739C22.8621 6.47311 23.2016 7.8118 23.6303 9.14821C23.8494 9.8301 24.1047 10.5097 24.514 11.0958C24.909 11.6614 25.3785 12.195 25.8915 12.6489C27.9721 14.4893 30.9629 14.5988 33.5781 14.3661C34.2885 14.2977 35.0061 14.1495 35.6635 13.8576C36.1957 13.6204 36.7857 13.3171 37.1613 12.8473C37.5418 12.3684 37.7104 11.764 37.9199 11.1939C38.0547 10.8267 38.1607 10.4687 38.2426 10.0832C38.4593 9.06155 38.6255 8.02617 38.9096 7.02044C39.0396 6.55521 39.189 6.08541 39.4081 5.65439C39.6224 5.23248 39.8584 4.98618 40.2461 4.74445C40.4074 4.29061 40.4701 3.77977 40.5543 3.30997C40.6338 2.87438 40.7133 2.4388 40.7759 2.00093C39.7982 1.84585 38.8133 1.75691 37.8356 1.61095C37.354 1.5357 36.8796 1.45359 36.3907 1.41939ZM3.62625 3.19822C3.61421 3.23243 3.59013 3.26208 3.5516 3.28489C3.253 3.46961 2.90142 3.6589 2.5402 3.62697C2.17899 3.59504 1.86835 3.4354 1.55529 3.25524C1.45897 3.20051 1.45175 3.10016 1.49268 3.02262C1.50232 2.97929 1.53121 2.93824 1.58419 2.91315C1.96467 2.72615 2.362 2.63949 2.7762 2.65545C2.78101 2.65545 2.78583 2.65317 2.79064 2.65317C2.82917 2.65317 2.8677 2.65773 2.90623 2.66229C2.91346 2.66229 2.92068 2.66229 2.92791 2.66457C2.94476 2.66685 2.96162 2.67141 2.97607 2.67598C3.20484 2.72387 3.41193 2.84246 3.59254 2.99525C3.66478 3.05911 3.66478 3.13665 3.62625 3.19822ZM17.6389 6.54837C17.6004 7.20973 17.5089 7.87109 17.3307 8.50737C16.9093 10.0034 16.0544 11.3398 14.8624 12.2954C13.7571 13.1825 12.3387 13.5337 10.9661 13.609C10.2268 13.65 9.48755 13.6158 8.75549 13.5086C8.10049 13.4129 7.40214 13.2851 6.81216 12.9659C5.5744 12.2954 4.95311 10.9749 4.53169 9.65677C4.52688 9.64537 4.52206 9.62941 4.51725 9.61572C4.51243 9.60204 4.51002 9.58608 4.50761 9.57467C4.30052 8.59175 4.11028 7.5883 4.10305 6.57802C4.09342 5.44002 4.31978 4.19939 5.16502 3.39435C5.65627 2.92912 6.24626 2.66229 6.88681 2.49581C7.70315 2.28372 8.54358 2.16741 9.384 2.12636C11.0335 2.04426 12.7216 2.16969 14.3447 2.47757C14.9756 2.59616 15.6185 2.77632 16.1676 3.13437C16.7022 3.48329 17.1164 3.95765 17.4463 4.50955C17.4511 4.51639 17.4559 4.52095 17.4607 4.52779C17.4631 4.53463 17.4656 4.53919 17.4704 4.54604C17.48 4.55972 17.4872 4.5734 17.4969 4.58937C17.5065 4.60533 17.5113 4.62129 17.5161 4.63726C17.6389 4.91093 17.6486 5.196 17.6534 5.50387C17.6558 5.85052 17.6606 6.19944 17.6389 6.54837ZM38.2161 2.73071C38.2233 2.68282 38.2498 2.63949 38.31 2.6144C38.7001 2.44792 39.0974 2.37722 39.5116 2.41599C39.5165 2.41599 39.5213 2.41599 39.5261 2.41599C39.567 2.41827 39.6056 2.42511 39.6465 2.43196C39.6513 2.43196 39.6561 2.43196 39.6633 2.43424C39.6802 2.43652 39.6922 2.44108 39.7067 2.44564C39.9355 2.50265 40.1377 2.62808 40.3135 2.79456C40.3689 2.84702 40.3785 2.91087 40.3617 2.96561C40.3545 3.01122 40.328 3.05455 40.275 3.0842C39.9692 3.25068 39.608 3.42628 39.2516 3.37611C38.8928 3.32594 38.5893 3.15489 38.2859 2.95877C38.1944 2.90175 38.1848 2.80825 38.2161 2.73071ZM37.7706 6.79467C37.7537 7.54269 37.7104 8.293 37.5852 9.02962C37.3612 10.3409 36.87 11.8187 35.7044 12.5394C34.51 13.2783 33.0218 13.6523 31.6372 13.666C30.3392 13.6774 29.022 13.4083 27.8613 12.7971C26.7174 12.1928 25.7205 11.26 25.1426 10.0582C24.3479 8.40246 24.2082 6.55521 24.2997 4.73304C24.2997 4.73076 24.2997 4.7262 24.3021 4.72392C24.3069 4.45709 24.3407 4.20623 24.5068 3.99186C24.6946 3.75012 24.909 3.53119 25.157 3.3533C25.6314 3.0135 26.1804 2.80369 26.7415 2.6851C27.37 2.55283 28.0106 2.50493 28.6487 2.46388C29.4073 2.41599 30.1658 2.33389 30.9244 2.30881C31.7889 2.27916 32.6582 2.29284 33.5203 2.37266C34.2379 2.44108 34.9941 2.50493 35.69 2.71931C36.2125 2.88123 36.7086 3.13893 37.1035 3.53803C37.2841 3.72047 37.5346 3.95309 37.6237 4.20623C37.7007 4.42745 37.7393 4.66691 37.7561 4.9018C37.7561 4.91093 37.7561 4.92005 37.7561 4.93145C37.826 5.53808 37.7826 6.18804 37.7706 6.79467Z" />
<path d="M39.8417 2.89035C39.7671 2.84702 39.6852 2.81281 39.6009 2.79685C39.3216 2.76036 39.0471 2.76948 38.7798 2.83789C38.9315 2.92456 39.0904 2.99525 39.2566 3.00666C39.4661 3.02034 39.6563 2.97017 39.8417 2.89035Z" />
<path d="M41.0289 1.66798C40.0874 1.51291 39.1362 1.41484 38.1898 1.28941C37.6648 1.21871 37.1471 1.11381 36.6197 1.0682C35.4638 0.96557 34.2983 0.956448 33.1376 0.96329C32.1912 0.967851 31.2111 0.947326 30.272 1.10697C29.2124 1.28485 28.1505 1.45361 27.0909 1.62921C25.8531 1.83446 24.5624 2.00095 23.3656 2.40917C22.6456 2.60301 21.9231 2.72616 21.1646 2.69652C20.2062 2.65775 19.2309 2.38408 18.2893 2.2062C16.3941 1.84587 14.5014 1.43081 12.5821 1.20731C10.215 0.929081 7.81171 1.06592 5.43733 1.21415C4.54152 1.26889 3.64571 1.3373 2.7523 1.43765C2.14306 1.50606 1.50491 1.56536 0.917337 1.75921C0.902888 1.76377 0.88844 1.77061 0.876399 1.77745C0.823421 1.80254 0.784892 1.85499 0.784892 1.93481C0.784892 2.65319 0.729506 3.36472 0.808973 4.08082C0.842686 4.37957 0.88844 4.72394 1.07145 4.96796C1.17259 5.10251 1.3243 5.16408 1.47361 5.21654C1.74813 5.3146 1.90465 5.40126 2.04432 5.67721C2.19844 5.98737 2.26105 6.3705 2.35978 6.70574C2.47296 7.08888 2.57892 7.47429 2.68728 7.85971C2.85585 8.46178 3.01479 9.06613 3.18817 9.66819C3.18817 9.67504 3.19058 9.68188 3.19058 9.68872C3.2267 9.81871 3.26523 9.9487 3.30857 10.0787C3.31339 10.0969 3.3182 10.1152 3.32543 10.1334C3.32784 10.1448 3.33265 10.154 3.33747 10.1631C3.47955 10.5736 3.65052 10.975 3.81427 11.3718C4.05508 11.951 4.29589 12.5554 4.6258 13.0868C5.01109 13.7048 5.69018 14.0674 6.33554 14.3114C7.07001 14.5896 7.85746 14.7105 8.63286 14.7972C8.64731 14.8017 8.66176 14.8063 8.67862 14.8063C8.72678 14.8109 8.77494 14.8131 8.8207 14.8177C8.83274 14.82 8.84719 14.82 8.85923 14.8223C8.86645 14.8223 8.87127 14.8223 8.87849 14.8223C9.99825 14.9089 11.1228 14.9203 12.2402 14.7972C13.1023 14.7037 14.0294 14.5418 14.7831 14.0606C16.5916 13.1871 17.6006 11.4539 18.4073 9.64083C18.913 8.50511 19.2983 7.31465 19.8136 6.1835C19.9918 5.79124 20.1821 5.44459 20.6083 5.31916C20.7937 5.26443 20.9912 5.26671 21.1814 5.27127C21.3958 5.27811 21.5258 5.31232 21.6582 5.43319C22.6287 6.6761 22.9201 8.22688 23.4354 9.69556C23.9074 11.0411 24.755 12.1677 25.8218 13.0685C26.7586 13.8599 27.8639 14.3228 29.0463 14.5554C30.5128 14.8428 32.0371 14.8633 33.5253 14.7356C33.5349 14.7356 33.5422 14.7379 33.5518 14.7356C33.5903 14.731 33.6289 14.7265 33.6674 14.7242C33.7107 14.7196 33.7541 14.7174 33.7974 14.7128C33.8119 14.7105 33.8263 14.7082 33.8384 14.7037C35.0063 14.5577 36.1814 14.1791 37.1134 13.4106C37.5396 13.0571 37.7949 12.5508 37.9947 12.0354C38.1729 11.5747 38.3608 11.1004 38.4836 10.6192C38.734 9.63855 38.8761 8.63282 39.1121 7.64762C39.2349 7.14133 39.377 6.63733 39.5696 6.15157C39.6563 5.93491 39.7599 5.72738 39.8851 5.53126C40.032 5.29864 40.2078 5.19145 40.4341 5.05006C40.4438 5.04321 40.451 5.03865 40.4582 5.03181C40.4992 5.01357 40.5353 4.97936 40.5545 4.92691C40.7496 4.42974 40.8122 3.85732 40.9061 3.33507C40.9952 2.84019 41.0843 2.34303 41.1517 1.84587C41.159 1.79798 41.1469 1.75921 41.1277 1.72956C41.1108 1.69991 41.0771 1.67711 41.0289 1.66798ZM40.5569 3.30771C40.4727 3.7775 40.4101 4.28835 40.2487 4.74218C39.861 4.98392 39.625 5.23022 39.4107 5.65212C39.1916 6.08315 39.0447 6.55295 38.9122 7.01818C38.6305 8.02391 38.4619 9.05928 38.2452 10.081C38.1633 10.4641 38.0573 10.8244 37.9225 11.1916C37.713 11.7618 37.5444 12.3661 37.1639 12.845C36.7907 13.3171 36.1983 13.6181 35.6661 13.8553C35.0087 14.1495 34.2887 14.2977 33.5807 14.3639C30.9655 14.5988 27.9747 14.487 25.8941 12.6466C25.3811 12.1928 24.9092 11.6614 24.5166 11.0935C24.1097 10.5074 23.852 9.82783 23.6329 9.14595C23.2042 7.80954 22.8623 6.47085 22.0411 5.33513C22.0339 5.31004 22.0219 5.28267 22.0026 5.25987C21.9761 5.22794 21.9472 5.19829 21.9183 5.17093C21.9111 5.1618 21.9063 5.15496 21.899 5.14584C21.875 5.11619 21.8509 5.10023 21.8244 5.09111C21.6028 4.92463 21.3572 4.89726 21.0418 4.89726C20.6613 4.89498 20.3097 4.98848 20.0087 5.23478C19.6499 5.52897 19.4789 6.0535 19.3055 6.47085C19.031 7.12993 18.7926 7.80497 18.5301 8.46862C17.709 10.5462 16.6711 12.7447 14.6146 13.739C13.8608 14.2202 12.9193 14.3593 12.0524 14.4483C10.9856 14.5554 9.90675 14.5349 8.83996 14.4483C8.08382 14.3662 7.3325 14.2498 6.60766 14.0127C5.96229 13.8006 5.26876 13.4494 4.89791 12.8336C4.58968 12.3182 4.36091 11.7435 4.12973 11.187C3.96598 10.7925 3.79501 10.3911 3.65775 9.98063C3.23151 8.58949 2.90401 7.16414 2.46815 5.77528C2.34052 5.36705 2.12138 5.05006 1.72405 4.90866C1.54585 4.84481 1.3821 4.81516 1.293 4.62815C1.21835 4.47079 1.19427 4.27467 1.17019 4.10134C1.07386 3.43086 1.13407 2.74897 1.14129 2.07392C1.93114 1.84131 2.79324 1.79341 3.60718 1.72044C4.8329 1.60869 6.06102 1.53799 7.28915 1.48782C8.24035 1.44677 9.19395 1.41028 10.1476 1.4194C11.9633 1.43765 13.7573 1.70675 15.5417 2.042C16.9914 2.31338 18.4434 2.58933 19.8931 2.87668C20.5601 3.00895 21.2272 3.10246 21.9087 3.05913C22.6287 3.01351 23.3367 2.81283 24.023 2.59617C24.0374 2.59161 24.0519 2.58477 24.0639 2.57793C24.9308 2.34531 25.8315 2.21076 26.7056 2.06252C27.8446 1.86639 28.9909 1.70447 30.1299 1.50378C31.0233 1.34642 31.936 1.34186 32.839 1.33274C34.0238 1.31906 35.211 1.33274 36.3934 1.4194C36.8822 1.45361 37.3542 1.53571 37.8382 1.60869C38.8159 1.75464 39.8032 1.84359 40.7785 1.99866C40.7159 2.43653 40.6364 2.87212 40.5569 3.30771Z" fill="white"/>
</svg>
