<svg xmlns="http://www.w3.org/2000/svg" viewBox="0 0 200 200" xmlnsV="http://www.w3.org/2000/svg://vecta.io/nano"><path d="M28.8 108.94c0 39.26 31.94 71.2 71.2 71.2s71.2-31.94 71.2-71.2c0-13.4-3.72-25.94-10.18-36.65-.93 1.79-1.99 3.5-3.19 5.11 5.13 9.37 8.06 20.12 8.06 31.54 0 16.84-6.36 32.23-16.8 43.89h-41.04L93.36 119.1h1.8 5.39L70.78 97.06l-11.72 22.03h7.14l21.11 33.73h-36.4c-10.44-11.66-16.8-27.04-16.8-43.89 0-33.44 25.04-61.11 57.35-65.31.68-1.84 1.49-3.71 2.4-5.6-36.39 3.12-65.06 33.73-65.06 70.92zm112.95 50.92c-11.37 9.34-25.92 14.96-41.75 14.96s-30.38-5.62-41.75-14.96h83.5zm1.03-127.45l2.49-4.31c.59-1.02.24-2.31-.78-2.9a2.13 2.13 0 0 0-2.9.78l-2.49 4.31-2.37-8.85c-.3-1.13-1.47-1.8-2.6-1.5s-1.8 1.47-1.5 2.6l3.47 12.95-3.32 5.75-3.71-8.42-3.71 8.42-3.32-5.75 3.47-12.95c.3-1.13-.37-2.3-1.5-2.6a2.13 2.13 0 0 0-2.6 1.5l-2.37 8.85-2.49-4.31c-.59-1.01-1.88-1.36-2.9-.78-1.01.59-1.36 1.88-.78 2.9l2.49 4.31-8.85-2.37a2.13 2.13 0 0 0-2.6 1.5c-.3 1.13.37 2.3 1.5 2.6l12.95 3.47 3.32 5.75-9.15-1 5.44 7.43h-5.92l-9.48-9.48a2.121 2.121 0 1 0-3 3l6.48 6.48h-6.42a2.12 2.12 0 0 0 0 4.24h6.42l-6.48 6.48a2.12 2.12 0 0 0 0 3 2.13 2.13 0 0 0 3 0l9.48-9.48h5.92l-5.44 7.43 9.15-1-3.32 5.75-12.95 3.47c-1.13.3-1.8 1.47-1.5 2.6.25.95 1.11 1.57 2.05 1.57.18 0 .37-.02.55-.07l8.85-2.37-3.21 5.56c-.59 1.02-.24 2.31.78 2.9a2.13 2.13 0 0 0 1.06.28c.73 0 1.45-.38 1.84-1.06l3.21-5.56 2.37 8.85c.25.95 1.11 1.57 2.05 1.57.18 0 .37-.02.55-.07 1.13-.3 1.8-1.47 1.5-2.6l-3.47-12.95 3.32-5.75 3.71 8.42 3.71-8.42 3.32 5.75-3.47 12.95a2.13 2.13 0 0 0 1.5 2.6c.18.05.37.07.55.07.94 0 1.79-.63 2.05-1.57l2.37-8.85 3.21 5.56c.39.68 1.11 1.06 1.84 1.06.36 0 .72-.09 1.06-.28 1.01-.59 1.36-1.88.78-2.9l-3.21-5.56 8.85 2.37a2.13 2.13 0 0 0 .55.07 2.12 2.12 0 0 0 2.05-1.57c.3-1.13-.37-2.3-1.5-2.6l-12.95-3.47-3.32-5.75 9.15 1-5.44-7.43h7.36l9.48 9.48a2.13 2.13 0 0 0 3 0 2.12 2.12 0 0 0 0-3l-6.48-6.48h4.98a2.12 2.12 0 1 0 0-4.24h-4.98l6.48-6.48a2.121 2.121 0 1 0-3-3l-9.48 9.48h-7.36l5.44-7.43-9.15 1 3.32-5.75 12.95-3.47c1.13-.3 1.8-1.47 1.5-2.6s-1.46-1.8-2.6-1.5l-8.85 2.37zm-32.83 119.06l30.91-60.68h-1.25-7.19l-1.33 1.89-28.88 41.02z"/></svg>