<svg xmlns="http://www.w3.org/2000/svg" viewBox="0 0 200 200" xmlnsV="https://vecta.io/nano"><path d="M102.21 133.24l7.74 17.77 30.91-60.68h-8.44zm51.81-62.4c7.46 10.68 11.86 23.65 11.86 37.64 0 16.84-6.36 32.22-16.8 43.88h-41.04l-14.69-33.73h1.8 5.39L70.78 96.6l-11.72 22.03h7.14l21.11 33.73h-36.4c-10.44-11.66-16.8-27.04-16.8-43.88 0-35.26 27.84-64.13 62.69-65.8.67-1.76 1.47-3.56 2.37-5.38-38.87.45-70.37 32.2-70.37 71.18 0 39.26 31.94 71.2 71.2 71.2s71.2-31.94 71.2-71.2a70.79 70.79 0 0 0-14.31-42.76c-.81 1.8-1.76 3.51-2.87 5.12zm-12.26 88.56A65.53 65.53 0 0 1 100 174.36c-15.83 0-30.38-5.62-41.76-14.96h83.52zm-2.15-112.55c-2.15 0-3.89 1.94-3.89 4.34 0 2.39 1.74 4.33 3.89 4.33s3.89-1.94 3.89-4.33c0-2.4-1.74-4.34-3.89-4.34zm-10.32-17.86c2.15 0 3.89-1.94 3.89-4.34s-1.74-4.33-3.89-4.33-3.89 1.94-3.89 4.33 1.74 4.34 3.89 4.34zm-14.97 11.48c0-2.39-1.74-4.33-3.89-4.33s-3.89 1.94-3.89 4.33 1.74 4.33 3.89 4.33 3.89-1.93 3.89-4.33zm15.55 19.1c-2.15 0-3.89 1.94-3.89 4.34 0 2.39 1.74 4.33 3.89 4.33s3.89-1.94 3.89-4.33c-.01-2.4-1.75-4.34-3.89-4.34zm-7.03-13.99c.61 1.55 2.5 2.25 4.23 1.57s2.63-2.49 2.02-4.04-2.51-2.25-4.23-1.57c-1.72.69-2.63 2.49-2.02 4.04zM117.45 67c-.61-1.55-2.51-2.25-4.23-1.57-1.73.68-2.63 2.49-2.02 4.04s2.51 2.25 4.23 1.57 2.63-2.49 2.02-4.04zm-3.13-35.27c0 1.74 1.27 3.16 2.83 3.16s2.83-1.42 2.83-3.16-1.27-3.16-2.83-3.16-2.83 1.42-2.83 3.16zm-2.83 17.62c0 1.38 1.01 2.51 2.25 2.51s2.25-1.12 2.25-2.51-1.01-2.51-2.25-2.51c-1.25.01-2.25 1.13-2.25 2.51zM143.7 63.9c1.57 0 2.83-1.41 2.83-3.16 0-1.74-1.27-3.16-2.83-3.16s-2.83 1.41-2.83 3.16c-.01 1.75 1.26 3.16 2.83 3.16zm5.03-19.1c0 4.18 3.04 7.57 6.79 7.57 1.55 0 2.97-.58 4.11-1.56 1.62-1.38 2.68-3.55 2.68-6.01 0-4.18-3.04-7.56-6.79-7.56a3.03 3.03 0 0 0-.31.02c-3.61.18-6.48 3.49-6.48 7.54zm-41.71 15.83c2.8-1.5 3.63-5.4 1.85-8.7s-5.48-4.76-8.28-3.25-3.63 5.4-1.85 8.7c1.78 3.31 5.49 4.76 8.28 3.25zm26.31-27.1c-2.29 2.38-2.41 5.97-.28 8.02s5.72 1.79 8-.59c2.29-2.38 2.41-5.97.28-8.02s-5.71-1.79-8 .59zm-13.65 15.45c-2.81.92-4.26 4.21-3.23 7.35 1.03 3.13 4.14 4.92 6.95 4s4.26-4.21 3.23-7.34-4.14-4.93-6.95-4.01z"/></svg>