<?xml version="1.0" encoding="utf-8"?>
<!-- Generator: Adobe Illustrator 25.0.0, SVG Export Plug-In . SVG Version: 6.00 Build 0)  -->
<svg version="1.1" id="圖層_1" xmlns="http://www.w3.org/2000/svg" xmlns:xlink="http://www.w3.org/1999/xlink" x="0px" y="0px"
	 viewBox="0 0 192 72.61" style="enable-background:new 0 0 192 72.61;" xml:space="preserve">

<g>
	<g>
		<path class="st0" d="M86.74,35.86c0,0,2.36,0.66,1.26,4.54c0,0-3.64,9.52-8.79,9.15C79.22,49.56,81.12,34.41,86.74,35.86z"/>
		
			<ellipse transform="matrix(0.6692 -0.7431 0.7431 0.6692 -2.4214 76.379)" class="st1" cx="84.58" cy="40.91" rx="0.78" ry="0.52"/>
		<path class="st1" d="M84.07,38.16c0,0,0.79,0.65,0.66,2.31c0,0-0.13,0.66-0.68,0.35c0,0,0.51-0.99-0.38-2.34L84.07,38.16z"/>
		<path class="st0" d="M103.01,35.86c0,0-2.36,0.66-1.26,4.54c0,0,3.64,9.52,8.79,9.15C110.54,49.56,108.64,34.41,103.01,35.86z"/>
		
			<ellipse transform="matrix(0.7431 -0.6692 0.6692 0.7431 -0.3532 80.8981)" class="st1" cx="105.18" cy="40.91" rx="0.52" ry="0.78"/>
		<path class="st1" d="M105.68,38.16c0,0-0.79,0.65-0.66,2.31c0,0,0.13,0.66,0.68,0.35c0,0-0.51-0.99,0.38-2.34L105.68,38.16z"/>
		<path class="st1" d="M82.19,35.76c0,0-1.45-0.58-1.76,0.39c0,0,0.03,1.22,1.45,1.16C81.89,37.31,80.01,36.34,82.19,35.76z"/>
		<path class="st1" d="M107.79,35.76c0,0,1.45-0.58,1.76,0.39c0,0-0.03,1.22-1.45,1.16C108.09,37.31,109.97,36.34,107.79,35.76z"/>
		<path class="st0" d="M105.8,21.08c0,0-1.91,0.58-2.14,0.68c-1.49,0.63-6,0.67-8.91,0.64c0,0-6.8,0.12-10.5-1.15l0.45,14.57
			c0,0,12.24-1.75,20.6,0.34C105.3,36.15,103.68,29.2,105.8,21.08z"/>
		<path class="st1" d="M84.41,22.22C81.99,11.1,62.92,10.64,62.92,10.64c-8.68-1.21-32.08-1.11-32.08-1.11
			c-6.76,0.2-11,4.24-11,4.24C15.1,17.8,14.7,25.77,14.7,25.77v4.74c0.1,19.88,4.44,25.63,4.44,25.63
			c5.95,11.1,21.39,11.7,21.39,11.7c12.91,1.21,21.39-0.81,21.39-0.81c11-1.21,18.26-17.86,18.26-17.86
			C88.04,34.65,84.41,22.22,84.41,22.22z M75.43,51c0,0-6.15,11.8-17.66,12.73c0,0-9.85,1.62-23.1-1.33c0,0-8.88-2.22-12.41-10.69
			c0,0-3.33-7.26-2.82-23.51c0,0-0.81-12.71,10.69-15.03c0,0,10.29-0.91,24.01,0c0,0,17.66,1.51,22.4,4.24c0,0,5.55,2.12,5.95,10.19
			C82.49,27.59,83.27,37,75.43,51z"/>
		<path class="st0" d="M7.51,26.79c0,0,0.31-0.55,1.17-0.55h6.01l0.02,3.81H8.86c0,0-0.98,0.06-1.35,0V26.79z"/>
		<path class="st1" d="M109.81,49.18c0,0,7.26,16.65,18.26,17.86c0,0,8.47,2.02,21.39,0.81c0,0,15.44-0.61,21.39-11.7
			c0,0,4.34-5.75,4.44-25.63v-4.74c0,0-0.4-7.97-5.15-12.01c0,0-4.24-4.04-11-4.24c0,0-23.41-0.1-32.08,1.11
			c0,0-19.07,0.46-21.49,11.58C105.57,22.22,101.94,34.65,109.81,49.18z M107.49,27.59c0.4-8.07,5.95-10.19,5.95-10.19
			c4.74-2.72,22.4-4.24,22.4-4.24c13.72-0.91,24.01,0,24.01,0c11.5,2.32,10.69,15.03,10.69,15.03c0.5,16.24-2.82,23.51-2.82,23.51
			c-3.53,8.47-12.41,10.69-12.41,10.69c-13.25,2.95-23.1,1.33-23.1,1.33C120.7,62.8,114.55,51,114.55,51
			C106.71,37,107.49,27.59,107.49,27.59z"/>
		<path class="st0" d="M182.47,26.79c0,0-0.31-0.55-1.17-0.55h-6.02v3.81h5.84c0,0,0.98,0.06,1.35,0V26.79z"/>
		<circle class="st0" cx="95.26" cy="32.29" r="0.29"/>
		<path class="st1" d="M49.97,9.53c0,0-0.25-1.09,0.94-1.28c0,0,26.46-0.11,42.38,0c0,0,27.94,0.35,34.08,0.24
			c0,0,10.23-0.24,12.09-0.16c0,0,1.39,0.54,0,1.47L93.2,9.9C93.2,9.9,51.52,9.75,49.97,9.53z"/>
	</g>
	<path class="st1" d="M84.83,35.32c0,0,5.13-0.54,10.46-0.65s9.88,0.89,9.88,0.89"/>
	<path class="st1" d="M84.25,21.48c0,0,0.49,1.22,3.04,1.47c2.55,0.24,7.44,0.22,7.44,0.22l6.73,0c0,0,2.99-0.2,4.34-1.83"/>
	<g>
		<defs>
			<path id="SVGID_1_" d="M105.65,21.51c0,0-0.92,1.07-3.06,1.49c-1.18,0.23-8.59,0.18-11.45,0.14c0,0-5.22,0.3-6.7-1.37l0.71,5.26
				l-0.32,8.29c0,0,12.2-1.58,20.33,0.28C105.16,35.59,103.58,29.43,105.65,21.51z"/>
		</defs>
		<clipPath id="SVGID_2_">
			<use xlink:href="#SVGID_1_"  style="overflow:visible;"/>
		</clipPath>
		<g class="st2">
			<line class="st1" x1="83.83" y1="21.51" x2="97.77" y2="36.02"/>
			<line class="st1" x1="86.88" y1="22.03" x2="100.75" y2="36.02"/>
			<line class="st1" x1="90.08" y1="22.17" x2="103.91" y2="36.32"/>
			<line class="st1" x1="92.98" y1="22.17" x2="105.44" y2="34.72"/>
			<line class="st1" x1="96" y1="22.17" x2="105.12" y2="31.51"/>
			<line class="st1" x1="98.75" y1="22.17" x2="105.1" y2="28.61"/>
			<line class="st1" x1="101.72" y1="21.94" x2="105.1" y2="25.42"/>
			<line class="st1" x1="104.19" y1="21.51" x2="105.79" y2="23.06"/>
			<line class="st1" x1="84.52" y1="25.42" x2="95.19" y2="36.32"/>
			<line class="st1" x1="84.57" y1="28.55" x2="92.26" y2="36.17"/>
			<line class="st1" x1="84.78" y1="31.46" x2="89.39" y2="36.45"/>
			<line class="st1" x1="84.52" y1="34.42" x2="86.79" y2="36.45"/>
			<line class="st1" x1="105.79" y1="21.51" x2="91.85" y2="36.02"/>
			<line class="st1" x1="102.74" y1="22.03" x2="88.87" y2="36.02"/>
			<line class="st1" x1="99.54" y1="22.17" x2="85.71" y2="36.32"/>
			<line class="st1" x1="96.64" y1="22.17" x2="84.68" y2="34.23"/>
			<line class="st1" x1="93.62" y1="22.17" x2="84.62" y2="31.38"/>
			<line class="st1" x1="90.87" y1="22.17" x2="84.52" y2="28.61"/>
			<line class="st1" x1="87.9" y1="21.94" x2="84.52" y2="25.42"/>
			<line class="st1" x1="85.43" y1="21.51" x2="83.83" y2="23.06"/>
			<line class="st1" x1="105.1" y1="25.42" x2="94.43" y2="36.32"/>
			<line class="st1" x1="105.18" y1="28.43" x2="97.37" y2="36.17"/>
			<line class="st1" x1="104.84" y1="31.46" x2="100.23" y2="36.45"/>
			<line class="st1" x1="105.1" y1="34.42" x2="102.83" y2="36.45"/>
		</g>
		<use xlink:href="#SVGID_1_"  style="overflow:visible;fill:none;stroke:#323333;stroke-width:0.25;stroke-miterlimit:10;"/>
	</g>
	<g>
		<g>
			<polygon class="st3" points="13.71,28.14 12.92,27.2 13.7,26.26 14.49,27.2 			"/>
			<polygon class="st3" points="13.72,30.03 12.93,29.09 13.71,28.14 14.5,29.09 			"/>
			<polygon class="st3" points="12.09,28.14 11.3,27.19 12.08,26.25 12.87,27.2 			"/>
			<polygon class="st3" points="12.1,30.03 11.31,29.08 12.09,28.14 12.88,29.09 			"/>
			<polygon class="st3" points="10.52,28.13 9.73,27.18 10.51,26.24 11.3,27.19 			"/>
			<polygon class="st3" points="10.53,30.02 9.73,29.07 10.52,28.13 11.31,29.08 			"/>
			<polygon class="st3" points="8.94,28.12 8.15,27.18 8.94,26.23 9.73,27.18 			"/>
			<polygon class="st3" points="8.95,30.01 8.16,29.06 8.94,28.12 9.73,29.07 			"/>
		</g>
		<polyline class="st3" points="7.7,26.64 8.15,27.18 7.51,27.88 7.51,28.23 8.16,29.06 7.51,29.83 		"/>
	</g>
	<g>
		<g>
			<polygon class="st3" points="176.24,28.16 177.04,27.22 176.25,26.27 175.46,27.22 			"/>
			<polygon class="st3" points="176.24,30.05 177.03,29.1 176.24,28.16 175.45,29.11 			"/>
			<polygon class="st3" points="177.86,28.16 178.65,27.21 177.87,26.27 177.08,27.22 			"/>
			<polygon class="st3" points="177.85,30.05 178.64,29.1 177.86,28.16 177.07,29.1 			"/>
			<polygon class="st3" points="179.44,28.15 180.23,27.2 179.44,26.26 178.65,27.21 			"/>
			<polygon class="st3" points="179.43,30.04 180.22,29.09 179.44,28.15 178.64,29.1 			"/>
			<polygon class="st3" points="181.01,28.14 181.8,27.2 181.02,26.25 180.23,27.2 			"/>
			<polygon class="st3" points="181,30.03 181.79,29.08 181.01,28.14 180.22,29.09 			"/>
		</g>
		<polyline class="st3" points="182.25,26.65 181.8,27.2 182.45,27.9 182.45,28.25 181.79,29.08 182.45,29.85 		"/>
	</g>
	<path class="st1" d="M21.04,29.33c0,0,18.23,0.98,22.51,1.16s7.46,3.61,7.46,3.61s8.14,7.89,9.91,9.6c1.77,1.71,2.2,2.32,2.2,2.32
		s0.47,1.81-1.08,2.69c-1.55,0.88-2.51-0.51-2.51-0.51s-1.79-4.34-3.08-6.08c-1.28-1.73-4.37-5.8-7.22-7.76
		c-2.84-1.96-4.74-2.45-7.12-2.54c-2.39-0.09-21.08-1.1-21.08-1.1l-0.89,0.95l-0.76,0.03v-3.79h0.52L21.04,29.33z"/>
	<path class="st1" d="M168.94,29.33c0,0-18.23,0.98-22.51,1.16c-4.28,0.18-7.46,3.61-7.46,3.61s-8.14,7.89-9.91,9.6
		c-1.77,1.71-2.2,2.32-2.2,2.32s-0.47,1.81,1.08,2.69c1.55,0.88,2.51-0.51,2.51-0.51s1.79-4.34,3.08-6.08
		c1.28-1.73,4.37-5.8,7.22-7.76c2.84-1.96,4.74-2.45,7.12-2.54c2.39-0.09,21.08-1.1,21.08-1.1l0.89,0.95l0.76,0.03v-3.79h-0.52
		L168.94,29.33z"/>
</g>
</svg>
