<?xml version="1.0" encoding="utf-8"?>
<!-- Generator: Adobe Illustrator 25.0.0, SVG Export Plug-In . SVG Version: 6.00 Build 0)  -->
<svg version="1.1" id="圖層_1" xmlns="http://www.w3.org/2000/svg" xmlns:xlink="http://www.w3.org/1999/xlink" x="0px" y="0px"
	 viewBox="0 0 192 69.22" style="enable-background:new 0 0 192 69.22;" xml:space="preserve">

<g>
	<path class="st0" d="M13.59,10.81c0,0,0.33,0,0.54,1.45c0.22,1.45,0.74,13.19,0.74,13.19l2.12,0.1c0,0-0.26-7.21-0.36-10.03
		c-0.11-2.82-0.2-3.79-0.3-4.07c-0.1-0.28-0.24-0.57-0.4-0.63H13.59z"/>
	<path class="st0" d="M13.75,9.29h1.22c0.17,0,0.31,0.13,0.32,0.3l0.08,1.14l-1.86,0l-0.03-1.16C13.47,9.42,13.59,9.29,13.75,9.29z"
		/>
	<path class="st0" d="M14.89,29.37l0.37,21.09v7.5c0,0-0.02,2.69-0.56,2.98h2.21c0,0,0.4-0.33,0.52-3.06c0.13-2.73,0-18.6,0-18.6
		l-0.29-9.83L14.89,29.37z"/>
	<path class="st1" d="M11.59,12.22c0,0,0.16-1.3,0.96-1.41h1.04c0,0,0.65-0.03,0.81,5.22c0.16,5.11,0.48,9.45,0.48,9.45l-1.29-0.07
		c0,0-0.11-5.71-0.43-9.43s-0.99-1.39-0.99-1.39s-0.24,1.62-0.21,2.46l0.45,20.42c0,0,0.74,16.62,0.83,18.09
		c0.09,1.46,0.35,1.83,0.35,1.83s0.34,0.43,0.36-0.98c0.02-1.41-0.34-25.43-0.34-27.08l1.31,0.05l0.19,10.95l0.18,16.24
		c0,0,0.15,3.89-0.56,4.38c-0.36,0.25-0.71,0.05-0.96-0.2c-0.28-0.28-0.44-0.66-0.48-1.05c-0.21-1.91-0.95-9.89-1.41-29.63
		C11.85,30.06,11.08,15.4,11.59,12.22z"/>
	<path class="st1" d="M17.15,29.45l0.35,14.66v12.65c0,0-0.25,3.89-0.54,4.13l1.01,0.01c0,0,0.25-0.01,0.4-0.61s0.43-2.32,0.38-5.44
		s-0.41-25.35-0.41-25.35L17.15,29.45z"/>
	<path class="st0" d="M11.51,21.7l-0.81,0.23c-0.14,0.04-0.23,0.17-0.23,0.31l0.13,9.27c0,0.19,0.13,0.36,0.32,0.41
		c0.36,0.09,0.89,0.25,0.98,0.35L11.51,21.7z"/>
	<g>
		<defs>
			<path id="SVGID_1_" d="M11.49,21.76l-0.81,0.23c-0.14,0.04-0.23,0.17-0.23,0.31l0.13,9.27c0,0.19,0.13,0.36,0.32,0.41
				c0.36,0.09,0.89,0.25,0.98,0.35L11.49,21.76z"/>
		</defs>
		<clipPath id="SVGID_2_">
			<use xlink:href="#SVGID_1_"  style="overflow:visible;"/>
		</clipPath>
		<g class="st2">
			<g>
				<g>
					<polygon class="st3" points="9.93,20.41 10.68,20.96 11.34,20.33 10.6,19.79 					"/>
					<polygon class="st3" points="8.52,20.5 9.26,21.04 9.93,20.41 9.18,19.87 					"/>
					<polygon class="st3" points="10.01,21.62 10.76,22.17 11.42,21.54 10.68,20.99 					"/>
					<polygon class="st3" points="8.6,21.7 9.34,22.25 10.01,21.62 9.26,21.08 					"/>
					<polygon class="st3" points="10.09,22.8 10.83,23.35 11.5,22.72 10.76,22.17 					"/>
					<polygon class="st3" points="8.68,22.88 9.42,23.43 10.09,22.8 9.34,22.25 					"/>
					<polygon class="st3" points="10.17,23.98 10.91,24.52 11.58,23.89 10.83,23.35 					"/>
					<polygon class="st3" points="8.75,24.06 9.5,24.61 10.17,23.98 9.42,23.43 					"/>
				</g>
			</g>
			<g>
				<g>
					<polygon class="st3" points="10.23,25.17 10.98,25.72 11.64,25.09 10.9,24.55 					"/>
					<polygon class="st3" points="8.82,25.26 9.56,25.8 10.23,25.17 9.49,24.63 					"/>
					<polygon class="st3" points="10.31,26.38 11.06,26.93 11.72,26.3 10.98,25.75 					"/>
					<polygon class="st3" points="8.9,26.46 9.64,27.01 10.31,26.38 9.57,25.84 					"/>
					<polygon class="st3" points="10.39,27.56 11.13,28.11 11.8,27.48 11.06,26.93 					"/>
					<polygon class="st3" points="8.98,27.64 9.72,28.19 10.39,27.56 9.64,27.01 					"/>
					<polygon class="st3" points="10.47,28.74 11.21,29.28 11.88,28.66 11.13,28.11 					"/>
					<polygon class="st3" points="9.05,28.82 9.8,29.37 10.47,28.74 9.72,28.19 					"/>
				</g>
			</g>
		</g>
		<g class="st2">
			<g>
				<g>
					<polygon class="st3" points="10.53,29.93 11.27,30.48 11.94,29.85 11.19,29.31 					"/>
					<polygon class="st3" points="9.11,30.02 9.86,30.56 10.53,29.93 9.78,29.39 					"/>
					<polygon class="st3" points="10.61,31.14 11.35,31.69 12.02,31.06 11.27,30.51 					"/>
					<polygon class="st3" points="9.19,31.23 9.94,31.77 10.61,31.14 9.86,30.6 					"/>
					<polygon class="st3" points="10.68,32.32 11.43,32.87 12.1,32.24 11.35,31.69 					"/>
					<polygon class="st3" points="9.27,32.4 10.02,32.95 10.68,32.32 9.94,31.77 					"/>
					<polygon class="st3" points="10.76,33.5 11.51,34.04 12.17,33.42 11.43,32.87 					"/>
					<polygon class="st3" points="9.35,33.58 10.09,34.13 10.76,33.5 10.02,32.95 					"/>
				</g>
			</g>
			<g>
				<g>
					<polygon class="st3" points="10.83,34.7 11.57,35.24 12.24,34.61 11.49,34.07 					"/>
					<polygon class="st3" points="9.41,34.78 10.16,35.32 10.83,34.7 10.08,34.15 					"/>
					<polygon class="st3" points="10.91,35.9 11.65,36.45 12.32,35.82 11.57,35.28 					"/>
					<polygon class="st3" points="9.49,35.99 10.24,36.53 10.91,35.9 10.16,35.36 					"/>
					<polygon class="st3" points="10.98,37.08 11.73,37.63 12.4,37 11.65,36.45 					"/>
					<polygon class="st3" points="9.57,37.16 10.32,37.71 10.98,37.08 10.24,36.53 					"/>
					<polygon class="st3" points="11.06,38.26 11.81,38.8 12.48,38.18 11.73,37.63 					"/>
					<polygon class="st3" points="9.65,38.34 10.39,38.89 11.06,38.26 10.32,37.71 					"/>
				</g>
			</g>
		</g>
		<use xlink:href="#SVGID_1_"  style="overflow:visible;fill:none;stroke:#323333;stroke-miterlimit:10;"/>
	</g>
	<path class="st0" d="M13.31,18.45c0,0-0.75,1.9-0.56,6.02c0.15,3.28,0.59,17.89,0.59,17.89s0.33,8.46,0.54,10.23"/>
	<path class="st1" d="M16.03,10.85c0,0,0.92-0.03,1.16,0.22c0.39,0.41,0.33,1.45,0.4,1.92c0.07,0.47,0.53,12.61,0.53,12.61
		l-1.18-0.05c0,0-0.16-6.17-0.27-8.99c-0.09-2.24-0.17-4.01-0.2-4.65c-0.01-0.23-0.06-0.46-0.15-0.68
		C16.24,11.07,16.15,10.91,16.03,10.85z"/>
	<polyline class="st0" points="13.75,9.29 11.63,9.46 11.63,10.73 13.51,10.73 	"/>
	<g>
		<path class="st0" d="M21.1,33.76c0.46-0.73,1.21-1.24,2.07-1.37c0.61-0.1,1.38-0.08,2.11,0.35c1.52,0.89,0.49,5.39,0.49,5.39
			s-0.9,4.59-2.01,5.69c-1.1,1.1-1.97,1.18-2.59,0.63c0,0-0.29-0.09-0.42-1.86c-0.07-0.98-0.78-6.27-0.34-7.42
			C20.42,35.16,20.67,34.44,21.1,33.76z"/>
		<path class="st0" d="M23.69,32.34c0,0,1.38,0.41,1.68,1.69s-0.35,4.26-0.35,4.26s-0.63,3.88-2.03,5.37c0,0-0.91,1.16-1.74,0.86"/>
		<path class="st0" d="M18.35,34.18l2.09,0.24c0,0,1.17,0.22,1.19,1.76c0.03,1.55,0.46,1.78,0.46,1.78s-0.38,0.38-0.29,0.85
			c0.07,0.33-0.57-0.92-0.73-1.99s0.07-1.39-0.51-1.65c0,0-1.02-0.22-2.21-0.08V34.18z"/>
		<circle class="st0" cx="22.88" cy="38.29" r="0.2"/>
		<line class="st0" x1="22.78" y1="38.11" x2="22.99" y2="38.45"/>
		<circle class="st0" cx="22.52" cy="38.65" r="0.75"/>
	</g>
	<path class="st0" d="M13.04,25.64v3.6c0,0.11,0.09,0.2,0.19,0.2l37.34,1.4c0,0,3.34,0.19,4.21-0.35c0.87-0.54,1.66-0.47,1.66-0.47
		l78.01,3.11c0,0,9.08,0.09,16.18,2.53c7.1,2.44,18.28,13.23,18.28,13.23l9.17,10.58c0,0,1.79,1.95,4.28,1.27s3.6-3.69,3.6-3.69
		s0.34-0.78-0.38-1.1c-0.72-0.33-13.71-8.16-13.71-8.16s-0.86-0.52-1.94-1.24c-1.08-0.72-9.55-7.81-14.57-10.59
		c-5.03-2.78-10.67-4.3-20.93-4.66c-10.27-0.36-77.9-2.96-77.9-2.96s-0.76-0.14-1.32-0.29c-0.56-0.14-2.98-0.96-4.39-0.98
		c-1.34-0.02-34.13-1.53-37.49-1.69C13.16,25.36,13.04,25.49,13.04,25.64z"/>
	<g>
		<g>
			<g>
				<polygon class="st3" points="14.69,27.41 15.48,26.57 14.8,25.65 14.01,26.49 				"/>
				<polygon class="st3" points="14.58,29.17 15.37,28.33 14.69,27.41 13.9,28.25 				"/>
				<polygon class="st3" points="16.2,27.49 16.99,26.65 16.31,25.73 15.52,26.57 				"/>
				<polygon class="st3" points="16.09,29.25 16.88,28.41 16.2,27.49 15.41,28.33 				"/>
				<polygon class="st3" points="17.67,27.57 18.46,26.73 17.78,25.81 16.99,26.65 				"/>
				<polygon class="st3" points="17.56,29.33 18.35,28.49 17.67,27.57 16.88,28.41 				"/>
				<polygon class="st3" points="19.14,27.65 19.93,26.81 19.25,25.89 18.46,26.73 				"/>
				<polygon class="st3" points="19.03,29.41 19.82,28.57 19.14,27.65 18.35,28.49 				"/>
			</g>
			<polyline class="st3" points="20.53,26.05 19.93,26.81 20.49,27.5 20.48,27.83 19.82,28.57 20.45,29.47 			"/>
		</g>
		<g>
			<g>
				<polygon class="st3" points="22.47,27.86 23.22,27.02 22.53,26.14 21.78,26.98 				"/>
				<polygon class="st3" points="22.41,29.59 23.16,28.75 22.47,27.86 21.72,28.71 				"/>
				<polygon class="st3" points="23.95,27.9 24.7,27.06 24.01,26.18 23.26,27.02 				"/>
				<polygon class="st3" points="23.89,29.63 24.64,28.78 23.95,27.9 23.2,28.75 				"/>
				<polygon class="st3" points="25.39,27.94 26.14,27.1 25.45,26.21 24.7,27.06 				"/>
				<polygon class="st3" points="25.33,29.67 26.08,28.82 25.39,27.94 24.64,28.78 				"/>
				<polygon class="st3" points="26.83,27.98 27.58,27.13 26.89,26.25 26.14,27.1 				"/>
				<polygon class="st3" points="26.77,29.7 27.52,28.86 26.83,27.98 26.08,28.82 				"/>
			</g>
			<g>
				<polygon class="st3" points="28.27,28.04 29.02,27.19 28.33,26.31 27.58,27.16 				"/>
				<polygon class="st3" points="28.21,29.76 28.96,28.92 28.27,28.04 27.52,28.88 				"/>
				<polygon class="st3" points="29.75,28.07 30.5,27.23 29.81,26.35 29.06,27.19 				"/>
				<polygon class="st3" points="29.69,29.8 30.44,28.96 29.75,28.07 29,28.92 				"/>
			</g>
		</g>
		<g>
			<g>
				<polygon class="st3" points="38.95,28.47 39.71,27.66 39.05,26.78 38.3,27.6 				"/>
				<polygon class="st3" points="38.86,30.16 39.61,29.35 38.95,28.47 38.2,29.28 				"/>
				<polygon class="st3" points="40.4,28.54 41.15,27.73 40.5,26.85 39.74,27.66 				"/>
				<polygon class="st3" points="40.31,30.23 41.06,29.42 40.4,28.54 39.65,29.35 				"/>
				<polygon class="st3" points="41.81,28.6 42.56,27.79 41.9,26.91 41.15,27.73 				"/>
				<polygon class="st3" points="41.71,30.29 42.47,29.48 41.81,28.6 41.06,29.42 				"/>
				<polygon class="st3" points="43.22,28.67 43.97,27.86 43.31,26.98 42.56,27.79 				"/>
				<polygon class="st3" points="43.12,30.36 43.87,29.55 43.22,28.67 42.47,29.48 				"/>
			</g>
			<g>
				<polygon class="st3" points="44.63,28.76 45.38,27.94 44.73,27.07 43.98,27.88 				"/>
				<polygon class="st3" points="44.54,30.45 45.29,29.63 44.63,28.76 43.88,29.57 				"/>
				<polygon class="st3" points="46.08,28.82 46.83,28.01 46.17,27.13 45.42,27.95 				"/>
				<polygon class="st3" points="45.98,30.51 46.74,29.7 46.08,28.82 45.33,29.64 				"/>
			</g>
			<g>
				<polygon class="st3" points="47.51,28.86 48.26,28.05 47.6,27.17 46.85,27.98 				"/>
				<polygon class="st3" points="47.41,30.55 48.16,29.74 47.51,28.86 46.75,29.67 				"/>
				<polygon class="st3" points="48.95,28.93 49.71,28.12 49.05,27.24 48.3,28.05 				"/>
				<polygon class="st3" points="48.86,30.62 49.61,29.81 48.95,28.93 48.2,29.74 				"/>
			</g>
		</g>
		<line class="st3" x1="20.53" y1="25.77" x2="20.45" y2="29.75"/>
	</g>
</g>
</svg>
