<svg xmlns="http://www.w3.org/2000/svg" viewBox="0 0 191.36 18.53"><path class="cls-1" d="M140.67,21.7a5.63,5.63,0,0,0-1.32-1.92,6,6,0,0,0-2-1.26,6.54,6.54,0,0,0-2.44-.46h0a6.66,6.66,0,0,0-2.42.43,6,6,0,0,0-2,1.23,5.8,5.8,0,0,0-1.33,1.92,6.72,6.72,0,0,0,0,5,5.8,5.8,0,0,0,1.31,2,6,6,0,0,0,2,1.31,6.4,6.4,0,0,0,2.45.47h0a6.88,6.88,0,0,0,1.64-.19,7,7,0,0,0,1.5-.58,5.76,5.76,0,0,0,1.27-.93,5.91,5.91,0,0,0,1-1.24,6.08,6.08,0,0,0,.63-1.53,6.83,6.83,0,0,0,.23-1.78A6.19,6.19,0,0,0,140.67,21.7Zm-3.07,4.42a5.12,5.12,0,0,1-.57,1.52,3,3,0,0,1-.92,1,2.26,2.26,0,0,1-1.22.34h0a2.31,2.31,0,0,1-1.24-.35,3,3,0,0,1-.91-1,5.41,5.41,0,0,1-.56-1.52,9.21,9.21,0,0,1-.18-2,8.62,8.62,0,0,1,.2-1.91,4.74,4.74,0,0,1,.57-1.46,2.86,2.86,0,0,1,.91-.92,2.37,2.37,0,0,1,1.23-.32h0a2.33,2.33,0,0,1,1.24.34,2.73,2.73,0,0,1,.9.92,5.18,5.18,0,0,1,.56,1.47,8.71,8.71,0,0,1,.19,1.91A8.54,8.54,0,0,1,137.6,26.12Z" transform="translate(-4.16 -11.87)"/><polygon points="140.2 10.88 140.17 17.97 140.16 18.23 139.9 18.23 138.07 18.22 137.81 18.21 137.81 17.96 137.87 6.67 137.87 6.42 138.13 6.42 139.98 6.43 140.1 6.43 140.18 6.52 146.38 13.23 147.86 14.94 147.86 18.32 140.2 10.88"/><path class="cls-1" d="M163.86,28.27a3.53,3.53,0,0,0,1,1.08,4.68,4.68,0,0,0,1.47.71,6.89,6.89,0,0,0,2,.26h0a7.66,7.66,0,0,0,2.07-.26,4.75,4.75,0,0,0,1.57-.72,3.21,3.21,0,0,0,1-1.12,3,3,0,0,0,.33-1.38,2.23,2.23,0,0,0-.31-1.17,3.76,3.76,0,0,0-.79-.92h0a6.4,6.4,0,0,0-1.1-.74c-.39-.22-.8-.43-1.22-.63l-1.2-.59a8.61,8.61,0,0,1-1-.59,2.86,2.86,0,0,1-.69-.64,1.11,1.11,0,0,1-.24-.69,1.27,1.27,0,0,1,.1-.46,1,1,0,0,1,.29-.41h0a1.4,1.4,0,0,1,.54-.31,2.53,2.53,0,0,1,.84-.12h0a2.57,2.57,0,0,1,.94.15,2.19,2.19,0,0,1,.67.39,2.44,2.44,0,0,1,.47.59,5.17,5.17,0,0,1,.36.75l.06.15h0l2.39,0h0l-.09-.3a4.67,4.67,0,0,0-.61-1.25,4.24,4.24,0,0,0-1-1,5,5,0,0,0-1.38-.7,5.83,5.83,0,0,0-1.73-.25h-.05a7.67,7.67,0,0,0-2,.24A5,5,0,0,0,165,19a3.36,3.36,0,0,0-1,1.08,2.82,2.82,0,0,0-.34,1.35,2.33,2.33,0,0,0,.29,1.21,3.79,3.79,0,0,0,.78.93,7.06,7.06,0,0,0,1.06.73c.39.21.79.41,1.19.6l1.18.56a7,7,0,0,1,1,.58,2.66,2.66,0,0,1,.67.67,1.37,1.37,0,0,1,.23.77,1,1,0,0,1-.15.56,1.06,1.06,0,0,1-.39.37,1.68,1.68,0,0,1-.57.21,3,3,0,0,1-.66.07h0a2.64,2.64,0,0,1-.89-.14,2.37,2.37,0,0,1-.66-.38,2.23,2.23,0,0,1-.46-.59,3.67,3.67,0,0,1-.29-.74l0-.19h-2.58l0,.27A4.34,4.34,0,0,0,163.86,28.27Z" transform="translate(-4.16 -11.87)"/><path class="cls-1" d="M192.37,27.6a2.76,2.76,0,0,1-.87.95,2,2,0,0,1-1.15.33h0a2.07,2.07,0,0,1-1.16-.36,2.92,2.92,0,0,1-.85-1,5.15,5.15,0,0,1-.51-1.51,9.32,9.32,0,0,1-.16-2,9.2,9.2,0,0,1,.21-1.9,4.6,4.6,0,0,1,.55-1.44,2.6,2.6,0,0,1,.86-.91,2.18,2.18,0,0,1,1.17-.31h0a2.14,2.14,0,0,1,1.16.34,2.7,2.7,0,0,1,.84.93l.1.2,3,0a5.64,5.64,0,0,0-.89-1.21,5.86,5.86,0,0,0-1.85-1.27,6.07,6.07,0,0,0-2.31-.47h0a5.92,5.92,0,0,0-2.28.4,5.57,5.57,0,0,0-1.89,1.21,5.84,5.84,0,0,0-1.28,1.9A6.74,6.74,0,0,0,184.5,24a6.66,6.66,0,0,0,.43,2.51,6.1,6.1,0,0,0,1.22,2A5.52,5.52,0,0,0,188,29.84a5.8,5.8,0,0,0,2.31.49h0a5.72,5.72,0,0,0,1.55-.18,5.46,5.46,0,0,0,1.42-.56,5.59,5.59,0,0,0,1.2-.91,6,6,0,0,0,.85-1.08l-3,0Z" transform="translate(-4.16 -11.87)"/><rect class="cls-1" x="170.1" y="6.52" width="9.19" height="2.18"/><rect class="cls-1" x="170.1" y="11.08" width="9.19" height="2.18"/><rect class="cls-1" x="170.1" y="15.96" width="9.19" height="2.18"/><rect class="cls-1" x="148.99" y="6.56" width="9.19" height="2.18"/><rect class="cls-1" x="148.99" y="11.12" width="9.19" height="2.18"/><rect class="cls-1" x="148.99" y="16" width="9.19" height="2.18"/><path class="cls-2" d="M58.34,24.34c0,.41-.18.71-.74.71H54c-.46,0-.73-.13-.73-.56s.18-.65.73-.65h4.33Zm15.85-1.7v-.48c0-.43.19-.71.77-.71h3.59c.5,0,.74.14.74.61s-.19.57-.71.57H74.19Zm9.44-3.18V27h3.63V21.52h3c1,0,1.52.31,1.52,1.29v4.24h3.62V22.51c0-2.13-1.17-3.05-4.48-3.05Zm-8.94,0c-2.92,0-4.09,1-4.09,3.16v1.51c0,1.89,1.17,2.92,3.8,2.92h7.69v-2h-7c-.69,0-.92-.2-.92-.71V24H79.7c1.9,0,3-.6,3-2v-.34c0-1.29-.64-2.21-3.86-2.21ZM63,27h3.62v-5c0-.33.14-.55.59-.55h2.81V19.45H66c-2.16,0-3,.81-3,2.16Zm-12.4-7.58v2h6.81c.68,0,.91.24.91.73v.29H52.88c-2.3,0-3,1-3,2.14v.3c0,1.67,1.34,2.13,4,2.13h4c2.86,0,4.09-.65,4.09-2.88V22.39c0-1.89-1.17-2.93-3.83-2.93Zm-21.7,4.22c0,2.39,1.22,3.36,4.37,3.36h6.91V25H33.82c-.75,0-1.27-.35-1.27-1.44v-.66c0-1,.48-1.38,1.26-1.38h6.4V19.44h-7c-3.1,0-4.27,1.3-4.27,3.38ZM41.3,18.25V27h7.88V25H44.92V18.25ZM18.66,23.17V18.25H16.61a4,4,0,0,0-2.75,1.11L4.16,27H8.53L15,21.83V27h3l6.23-5.24V27h3.7V18.25h-2a3.84,3.84,0,0,0-2.61,1.08ZM4.16,11.87" transform="translate(-4.16 -11.87)"/><path class="cls-2" d="M88.12,17.82s7.84-4.34,14.45-5.3,5.29,2,5.29,2-1.44,3.79-9.28,8.12c0,0,2.71-3.27,1.06-5S93.45,16.54,88.12,17.82Z" transform="translate(-4.16 -11.87)"/><polygon class="cls-1" points="114.42 11.6 110.68 11.6 110.68 7.87 109.71 7.87 109.71 11.6 105.97 11.6 105.97 12.58 109.71 12.58 109.71 16.31 110.68 16.31 110.68 12.58 114.42 12.58 114.42 11.6"/></svg>