<svg xmlns="http://www.w3.org/2000/svg" viewBox="0 0 164.3 45.9"><defs/><path d="M113.4 68V55.3h11V57H117v3.6h6.9v1.9h-7v3.6h7.3V68ZM67.5 68v-5.3l-5.2-7.4h4l3 5 3-5h4l-5.1 7.4V68Z" class="cls-1" transform="translate(-17.9 -22)"/><path d="M47.5 31.2a14.3 14.3 0 0 0-3.3-4.8 15 15 0 0 0-4.8-3 16.2 16.2 0 0 0-6-1.2h-.1a16.7 16.7 0 0 0-6 1 15 15 0 0 0-4.8 3 14.4 14.4 0 0 0-3.3 4.8 15.3 15.3 0 0 0-1.2 6 16 16 0 0 0 1.1 6.3 14.9 14.9 0 0 0 3.3 4.8 14.6 14.6 0 0 0 4.8 3.2 16 16 0 0 0 6 1.2h.1a16.5 16.5 0 0 0 4-.5 15.3 15.3 0 0 0 3.7-1.4 14.4 14.4 0 0 0 3.1-2.3 14.6 14.6 0 0 0 2.4-3 15.3 15.3 0 0 0 1.5-3.7 17 17 0 0 0 .6-4.4 14.8 14.8 0 0 0-1.1-6ZM39.9 42a13 13 0 0 1-1.4 3.7 7 7 0 0 1-2.2 2.4 5.4 5.4 0 0 1-3 .8h0a5.6 5.6 0 0 1-3-.9 7.1 7.1 0 0 1-2.3-2.4 12.8 12.8 0 0 1-1.4-3.7 22.5 22.5 0 0 1-.4-4.8 22 22 0 0 1 .5-4.7 12 12 0 0 1 1.4-3.6 6.8 6.8 0 0 1 2.2-2.2 5.8 5.8 0 0 1 3-.8h0a5.8 5.8 0 0 1 3 .8 6.8 6.8 0 0 1 2.2 2.3 12 12 0 0 1 1.5 3.6 21.4 21.4 0 0 1 .5 4.7 22.4 22.4 0 0 1-.6 4.8Z" class="cls-2" transform="translate(-17.9 -22)"/><path d="M38.6 11.7v18l-.7-.1h-5.1V29l.1-27.7V.7h5.5l.2.2 15.2 16.5 3.7 4.2v8.3L38.6 11.7z" class="cls-2"/><path d="M104.3 47.3a8.6 8.6 0 0 0 2.4 2.6 11.6 11.6 0 0 0 3.6 1.7 17.7 17.7 0 0 0 4.9.7h0a18.6 18.6 0 0 0 5.2-.6 11.8 11.8 0 0 0 3.8-1.8 8 8 0 0 0 2.4-2.8 7.5 7.5 0 0 0 .8-3.4 5.5 5.5 0 0 0-.8-2.8 8.8 8.8 0 0 0-2-2.3h0a16.9 16.9 0 0 0-2.6-1.8l-3-1.5-3-1.5a21.4 21.4 0 0 1-2.5-1.4 7.2 7.2 0 0 1-1.7-1.6 2.7 2.7 0 0 1-.6-1.7 3 3 0 0 1 .3-1.1 2.6 2.6 0 0 1 .7-1h0a3.8 3.8 0 0 1 1.3-.8 6.1 6.1 0 0 1 2-.3h.1a6.9 6.9 0 0 1 2.3.4 5.2 5.2 0 0 1 1.7 1 6.1 6.1 0 0 1 1.1 1.5 14.6 14.6 0 0 1 .9 1.8l.1.4h5.9l-.2-.8a11.8 11.8 0 0 0-1.4-3 10.3 10.3 0 0 0-2.4-2.6 11.6 11.6 0 0 0-3.4-1.7 14 14 0 0 0-4.3-.6h0a18.4 18.4 0 0 0-5 .6 12 12 0 0 0-3.8 1.7 8 8 0 0 0-2.4 2.6 6.8 6.8 0 0 0-.8 3.3 5.8 5.8 0 0 0 .7 3 8.5 8.5 0 0 0 1.9 2.3 14.9 14.9 0 0 0 2.6 1.8l3 1.5 2.8 1.3a15.9 15.9 0 0 1 2.4 1.5 7 7 0 0 1 1.6 1.6 3.2 3.2 0 0 1 .6 2 2.4 2.4 0 0 1-.4 1.3 2.6 2.6 0 0 1-1 .9 4.7 4.7 0 0 1-1.4.5 8 8 0 0 1-1.6.2h0a6.2 6.2 0 0 1-2.1-.4 5 5 0 0 1-1.6-1 5.1 5.1 0 0 1-1.2-1.4 7.3 7.3 0 0 1-.7-1.8v-.4h0-6.4l.1.6a10 10 0 0 0 1.1 3.3ZM174.3 45.6a7 7 0 0 1-2.1 2.4 5 5 0 0 1-2.9.8h0a5 5 0 0 1-2.9-.9 6.9 6.9 0 0 1-2-2.4 13 13 0 0 1-1.3-3.7 24.1 24.1 0 0 1-.4-4.8 22 22 0 0 1 .5-4.7 12 12 0 0 1 1.4-3.5 6.6 6.6 0 0 1 2.1-2.2 5.3 5.3 0 0 1 2.9-.8h0a5 5 0 0 1 2.8.9 6.5 6.5 0 0 1 2.1 2.2c0 .2.2.4.3.5h7.2a13.6 13.6 0 0 0-2.2-3 14 14 0 0 0-4.5-3 14.7 14.7 0 0 0-5.7-1.2h0a15 15 0 0 0-5.7 1 14 14 0 0 0-4.6 3 14.3 14.3 0 0 0-3.1 4.7 15.8 15.8 0 0 0-1.2 6 16.6 16.6 0 0 0 1 6.1 15 15 0 0 0 3 4.9 13.9 13.9 0 0 0 4.5 3.2 14.5 14.5 0 0 0 5.7 1.2h.1a15.3 15.3 0 0 0 3.8-.4 14.3 14.3 0 0 0 3.5-1.4 13.6 13.6 0 0 0 3-2.2 14.1 14.1 0 0 0 2-2.7h-7.3 0Z" class="cls-2" transform="translate(-17.9 -22)"/><path d="M112 .9h22.6v5.3H112zM112 12.1h22.6v5.3H112zM112 24.1h22.6v5.3H112zM60.2 1h22.6v5.3H60.2zM60.2 12.2h22.6v5.3H60.2zM60.2 24.2h22.6v5.3H60.2z" class="cls-2"/><path d="m110.7 55.3-4 12.7h-3l-1.9-7.6-2 7.6h-3l-4-12.7h3.4l2.3 7.9h.1l2-7.9h2.6l1.8 7.9 2.4-8ZM79.2 68V55.3h11V57H83v3.6h7v1.9h-7v3.6h7.3V68ZM48.6 68V55.3h11V57h-7.3v3.6h7v1.9h-7v3.6h7.3V68Z" class="cls-1" transform="translate(-17.9 -22)"/><path d="m114.5 33.2-5.3 12.7h3.4l1.2-3.5h4.3l-.6-1.7h-3.1l1.4-3.8h.1l3.3 9h3.3l-5.2-12.7h-2.8z" class="cls-1"/><path d="M151.3 62.2a4.5 4.5 0 0 0 2.3-1.3 3 3 0 0 0 .7-1.9q0-3.7-6-3.7h-5.2V68h3.2v-5.5h2.5L152 68h3Zm-.1-2.4a1.2 1.2 0 0 1-.4.6 2 2 0 0 1-.8.4 6.7 6.7 0 0 1-1.4.2h-2.3v-4h2.1a4 4 0 0 1 2.4.5 1.2 1.2 0 0 1 .4.6 3 3 0 0 1 .1.9 3.1 3.1 0 0 1-.1.8Z"  transform="translate(-17.9 -22)"/></svg>