<svg  xmlns="http://www.w3.org/2000/svg" viewBox="0 0 180.26 66.78"><polygon class="cls-1" points="121.96 46.72 120.63 50.35 123.34 50.35 122.02 46.72 121.96 46.72"/><path class="cls-1" d="M138.15,45.35a3.81,3.81,0,0,0-2.24-.47h-2v3.74h2.2a5.86,5.86,0,0,0,1.34-.13,1.77,1.77,0,0,0,.78-.36,1.28,1.28,0,0,0,.35-.58,3.6,3.6,0,0,0,0-1.6A1.28,1.28,0,0,0,138.15,45.35Z" transform="translate(0 0)"/><path class="cls-1" d="M0,0V66.78H180.26V0ZM117.88,12.77a.47.47,0,0,1,.46-.46h21.31a.47.47,0,0,1,.47.46v5.05a.46.46,0,0,1-.47.46H118.34a.46.46,0,0,1-.46-.46Zm0,10.57a.47.47,0,0,1,.46-.47h21.31a.47.47,0,0,1,.47.47v5.05a.47.47,0,0,1-.47.46H118.34a.47.47,0,0,1-.46-.46Zm0,11.31a.47.47,0,0,1,.46-.46h21.31a.47.47,0,0,1,.47.46V39.7a.47.47,0,0,1-.47.47H118.34a.47.47,0,0,1-.46-.47ZM69,12.86a.47.47,0,0,1,.47-.46H90.73a.46.46,0,0,1,.46.46v5.06a.46.46,0,0,1-.46.46H69.42a.47.47,0,0,1-.47-.46Zm0,10.57a.47.47,0,0,1,.47-.46H90.73a.46.46,0,0,1,.46.46v5.05a.45.45,0,0,1-.46.46H69.42a.46.46,0,0,1-.47-.46ZM43.16,12.53a.47.47,0,0,1,.47-.46h0l5.17,0a.44.44,0,0,1,.33.15l.18.19L63.7,28l3.45,4a.46.46,0,0,1,.11.3v7.85a.47.47,0,0,1-.28.43l-.18,0a.42.42,0,0,1-.32-.13L49.49,24l-.08,15.94a.47.47,0,0,1-.46.46h0l-5.45,0a.46.46,0,0,1-.47-.46ZM40,34a13.74,13.74,0,0,1-5.39,5.2A15.13,15.13,0,0,1,31,40.62a16.35,16.35,0,0,1-3.91.46A15.69,15.69,0,0,1,21.17,40a14.33,14.33,0,0,1-4.74-3.12,14.62,14.62,0,0,1-3.14-4.76,15.46,15.46,0,0,1-1.13-6,15.06,15.06,0,0,1,1.18-5.91,14.08,14.08,0,0,1,3.2-4.6,14.22,14.22,0,0,1,4.77-3A16.58,16.58,0,0,1,33,12.64a14.66,14.66,0,0,1,4.74,3,14.16,14.16,0,0,1,3.17,4.61,14.74,14.74,0,0,1,1.14,5.87,16.37,16.37,0,0,1-.54,4.22A14.6,14.6,0,0,1,40,34ZM52,44.88H45.06v3.4h6.56v1.8H45.06v3.44H52v1.71H41.59v-12H52ZM63,50.27v5H59.43v-5l-4.91-7h3.79l2.88,4.83h.07l2.88-4.83h3.79ZM69,39.8v-5a.46.46,0,0,1,.47-.46H90.73a.45.45,0,0,1,.46.46v5a.46.46,0,0,1-.46.46H69.42A.47.47,0,0,1,69,39.8Zm11.91,5.08H74v3.4h6.55v1.8H74v3.44h6.88v1.71H70.5v-12H80.86ZM96.45,55.23H93.62l-1.77-7.1h-.06L90,55.23H87.2l-3.77-12h3.16l2.19,7.44h.06l1.79-7.44h2.51l1.7,7.44h.07l2.18-7.44h3.13Zm16.7-10.35h-6.89v3.4h6.56v1.8h-6.56v3.44h6.89v1.71H102.79v-12h10.36Zm.14-6.36a11.6,11.6,0,0,1-3.78,1.76,18.13,18.13,0,0,1-4.93.61h-.12a17.11,17.11,0,0,1-4.73-.62,11.45,11.45,0,0,1-3.54-1.72,8.68,8.68,0,0,1-2.35-2.64,9.94,9.94,0,0,1-1.16-3.28L92.57,32a.45.45,0,0,1,.46-.53h0l6,0a.45.45,0,0,1,.45.35l.1.42a7.66,7.66,0,0,0,.62,1.62,4.31,4.31,0,0,0,2.36,2,6.59,6.59,0,0,0,3.37.15,3.6,3.6,0,0,0,1.18-.43,2.19,2.19,0,0,0,.75-.7,1.94,1.94,0,0,0,.26-1,2.59,2.59,0,0,0-.45-1.54,6.31,6.31,0,0,0-1.44-1.43,15.33,15.33,0,0,0-2.21-1.3l-2.72-1.3c-.94-.45-1.87-.92-2.78-1.42A14.85,14.85,0,0,1,96,25.15a8.34,8.34,0,0,1-1.9-2.28,5.94,5.94,0,0,1-.74-3,6.86,6.86,0,0,1,.86-3.36,7.91,7.91,0,0,1,2.41-2.63,11.86,11.86,0,0,1,3.73-1.69,18.25,18.25,0,0,1,4.76-.58,13.87,13.87,0,0,1,4.28.63,11.52,11.52,0,0,1,3.32,1.68,10.42,10.42,0,0,1,2.41,2.51,11.93,11.93,0,0,1,1.46,3l.21.68a.46.46,0,0,1-.23.55.44.44,0,0,1-.22.05l-5.54,0a.49.49,0,0,1-.45-.3l-.14-.36a12.73,12.73,0,0,0-.79-1.66,5.23,5.23,0,0,0-1-1.26,4.13,4.13,0,0,0-1.39-.82,6,6,0,0,0-2-.32,5.45,5.45,0,0,0-1.84.26,3.27,3.27,0,0,0-1.1.61,2.21,2.21,0,0,0-.56.79,2.4,2.4,0,0,0-.18.89,2.1,2.1,0,0,0,.45,1.33,6.52,6.52,0,0,0,1.5,1.38,19.42,19.42,0,0,0,2.3,1.34l2.79,1.36c1,.47,1.94,1,2.85,1.47a15.29,15.29,0,0,1,2.61,1.77l0,0a9,9,0,0,1,1.92,2.23,5.64,5.64,0,0,1,.78,2.94,7.6,7.6,0,0,1-.82,3.42A7.85,7.85,0,0,1,113.29,38.52Zm11.82,16.73L123.92,52h-3.85l-1.17,3.29h-3.18l5-12h2.65l5,12Zm14.12,0-3-5.12h-2.41v5.12h-3v-12h4.94c3.74,0,5.61,1.18,5.61,3.52a2.75,2.75,0,0,1-.6,1.8,4.26,4.26,0,0,1-2.14,1.2l3.43,5.47ZM168,19.07a.47.47,0,0,1-.4.23h0l-6.86-.06a.46.46,0,0,1-.41-.26c-.07-.14-.14-.29-.22-.42a5.78,5.78,0,0,0-1.8-2,4.49,4.49,0,0,0-2.46-.71h0a4.51,4.51,0,0,0-2.44.64,5.7,5.7,0,0,0-1.85,1.95,10.59,10.59,0,0,0-1.22,3.21,20.22,20.22,0,0,0-.48,4.31,22,22,0,0,0,.36,4.44,11.86,11.86,0,0,0,1.15,3.38,6.07,6.07,0,0,0,1.81,2.11,4.3,4.3,0,0,0,2.45.74h0a4.25,4.25,0,0,0,2.4-.68,5.91,5.91,0,0,0,1.87-2h0a.53.53,0,0,1,.42-.27h0l6.91.06a.49.49,0,0,1,.4.24.47.47,0,0,1,0,.47,13.48,13.48,0,0,1-8.32,6.11,14.4,14.4,0,0,1-3.56.43h-.14A14.25,14.25,0,0,1,150,39.75a13.61,13.61,0,0,1-4.46-3.16,14.53,14.53,0,0,1-2.92-4.76,16,16,0,0,1-1-6A15.42,15.42,0,0,1,142.81,20a13.83,13.83,0,0,1,3.05-4.56,13.5,13.5,0,0,1,4.53-2.91,15.7,15.7,0,0,1,5.47-1,14.55,14.55,0,0,1,5.61,1.14,13.89,13.89,0,0,1,4.45,3.05,14.23,14.23,0,0,1,2.13,2.88A.47.47,0,0,1,168,19.07Z" transform="translate(0 0)"/><path class="cls-1" d="M29.78,16.56a5.43,5.43,0,0,0-5.3,0,5.81,5.81,0,0,0-1.94,2,10.59,10.59,0,0,0-1.27,3.24,19.83,19.83,0,0,0-.46,4.33,20.61,20.61,0,0,0,.42,4.46,11.28,11.28,0,0,0,1.25,3.38A6.09,6.09,0,0,0,24.42,36a5.15,5.15,0,0,0,5.25,0,6.14,6.14,0,0,0,2-2.08,11.22,11.22,0,0,0,1.28-3.37h0a19.86,19.86,0,0,0,.47-4.45A19.4,19.4,0,0,0,33,21.82a11,11,0,0,0-1.25-3.26A6.07,6.07,0,0,0,29.78,16.56Z" transform="translate(0 0)"/></svg>