<svg xmlns="http://www.w3.org/2000/svg" viewBox="0 0 273 353"><path fill="#fff" d="M120.321 37.986c-2.052-6.738-1.355-13.87 1.962-20.084 3.317-6.215 8.857-10.768 15.602-12.818 6.744-2.05 13.884-1.356 20.103 1.96 6.22 3.314 10.777 8.85 12.829 15.59l45.981 150.084a5.079 5.079 0 0 1-2.107 5.748 5.08 5.08 0 0 1-1.273.586 5.081 5.081 0 0 1-6.339-3.377L161.097 25.588v-.002a16.115 16.115 0 0 0-7.89-9.588 16.145 16.145 0 0 0-12.365-1.206 16.126 16.126 0 0 0-9.596 7.884 16.093 16.093 0 0 0-1.205 12.354l33.004 107.491a5.074 5.074 0 0 1-2.107 5.745 4.979 4.979 0 0 1-1.273.586 5.082 5.082 0 0 1-6.339-3.377L120.321 37.986c0 .002 0 0 0 0ZM54.084 157.927a23.535 23.535 0 0 1 6.96-1.021 5.079 5.079 0 0 1 5.054 5.101 5.079 5.079 0 0 1-5.105 5.051c-1.33-.006-2.66.188-3.95.582-7.029 2.139-11.006 9.591-8.867 16.611a.022.022 0 0 1 .002.01l.006.017c.289.969 28.991 97.123 34.735 114.028 2.51 7.388 10.013 14.763 17.266 21.895 8.484 8.34 16.494 16.216 18.885 25.535a5.075 5.075 0 0 1-3.662 6.176 5.079 5.079 0 0 1-6.181-3.658c-1.688-6.584-9.05-13.822-16.169-20.819-8.1-7.963-16.474-16.197-19.76-25.866-5.806-17.084-33.67-110.426-34.851-114.39l-.004-.018c-3.738-12.363 3.269-25.472 15.641-29.234Z"/><path fill="#fff" d="M233.552 258.015c8.932-20.979 19.054-44.759 18.136-57.855l-4.154-57.311a5.01 5.01 0 0 1-.118-.646 16.107 16.107 0 0 0-6.016-10.861 16.136 16.136 0 0 0-11.939-3.43 16.236 16.236 0 0 0-9.983 4.988 5.083 5.083 0 0 1-7.18.215 5.072 5.072 0 0 1-.216-7.174 26.408 26.408 0 0 1 16.236-8.115c7.005-.793 13.899 1.186 19.412 5.576 5.255 4.183 8.655 10.075 9.65 16.678.118.369.195.759.223 1.161l4.218 58.192v.011c1.094 15.534-9.08 39.432-18.921 62.544-4.152 9.756-8.076 18.971-11.042 27.253-3.617 10.1-5.171 17.107-4.751 21.422.566 5.806 2.857 14.875 6.807 26.954a5.08 5.08 0 0 1-2.077 5.846 5.08 5.08 0 0 1-7.581-2.693c-4.181-12.783-6.624-22.583-7.261-29.125-.586-5.999 1.049-13.964 5.295-25.825 3.069-8.562 7.048-17.909 11.262-27.805ZM82.704 171.297a5.08 5.08 0 0 1-2.108 5.747 5.082 5.082 0 0 1-7.612-2.791l-1.996-6.551c-2.052-6.738-1.357-13.872 1.96-20.086 3.317-6.215 8.857-10.768 15.602-12.818a26.269 26.269 0 0 1 10.257-1.023 5.076 5.076 0 1 1-.994 10.102 16.148 16.148 0 0 0-6.304.63 16.121 16.121 0 0 0-9.597 7.885 16.095 16.095 0 0 0-1.205 12.354l1.997 6.551Zm29.846-13.42-2.707-8.886c-4.237-13.91 3.642-28.671 17.562-32.906a26.601 26.601 0 0 1 5.24-1.033 5.08 5.08 0 0 1 5.533 4.578 5.077 5.077 0 0 1-4.584 5.528 16.402 16.402 0 0 0-3.23.638c-8.563 2.605-13.408 11.683-10.802 20.239l2.707 8.888a5.076 5.076 0 0 1-3.38 6.334 5.082 5.082 0 0 1-6.339-3.38ZM2.535 34.61l57-33a5.086 5.086 0 0 1 5.085-.005A5.076 5.076 0 0 1 67.163 6v27.925h35.731a5.078 5.078 0 0 1 5.08 5.076 5.078 5.078 0 0 1-5.08 5.076H63.278a5.15 5.15 0 0 1-.599-.037A5.078 5.078 0 0 1 57 39.001V14.81L15.213 39.004 57 63.198v-3.225a5.078 5.078 0 0 1 5.08-5.076 5.078 5.078 0 0 1 5.08 5.076v12.033a5.076 5.076 0 0 1-7.626 4.389l-57-33A5.077 5.077 0 0 1 0 39.004a5.084 5.084 0 0 1 2.535-4.393Zm185.915 4.392a5.078 5.078 0 0 1 5.08-5.076h74.39a5.078 5.078 0 0 1 5.08 5.076 5.078 5.078 0 0 1-5.08 5.076h-74.39a5.08 5.08 0 0 1-5.08-5.076Z"/></svg>