<svg xmlns="http://www.w3.org/2000/svg" viewBox="0 0 200 200" xmlnsV="https://vecta.io/nano"><path d="M159.35 85.66c4.19 8.65 6.53 18.35 6.53 28.59 0 16.84-6.36 32.22-16.8 43.88h-41.04L93.36 124.4h1.8 5.39l-29.77-22.03-11.72 22.03h7.14l21.11 33.73h-36.4c-10.44-11.66-16.8-27.04-16.8-43.88 0-31.57 22.32-58.01 52-64.4.78-1.94 1.72-3.92 2.81-5.93-34.01 5.33-60.12 34.84-60.12 70.33 0 39.26 31.94 71.2 71.2 71.2s71.2-31.94 71.2-71.2c0-11.84-2.92-23-8.05-32.83a41.11 41.11 0 0 1-3.8 4.24zm-17.6 79.51c-11.38 9.34-25.92 14.96-41.75 14.96s-30.38-5.62-41.75-14.96h83.5zm-31.8-8.39l30.83-60.51.08-.17h-8.44l-1.35 1.93L102.21 139zm-1.76-117.94c-2.84 3.53-4.71 7.86-5.23 12.59H90.32a2.66 2.66 0 0 0 0 5.32h12.64c.52 4.73 2.39 9.06 5.23 12.59l-8.95 8.95c-1.04 1.04-1.04 2.72 0 3.76a2.65 2.65 0 0 0 3.76 0l8.95-8.95c3.53 2.84 7.86 4.71 12.59 5.23v12.64a2.66 2.66 0 1 0 5.32 0V78.32c4.73-.52 9.06-2.39 12.59-5.23l8.95 8.95a2.65 2.65 0 0 0 3.76 0c1.04-1.04 1.04-2.72 0-3.76l-8.95-8.95c2.83-3.53 4.71-7.85 5.23-12.59h12.65a2.66 2.66 0 0 0 0-5.32h-12.65c-.52-4.73-2.39-9.06-5.23-12.59l8.95-8.95c.22-.22.38-.48.51-.75.47-.99.3-2.2-.51-3.01-.66-.66-1.58-.9-2.44-.72a2.58 2.58 0 0 0-1.32.72l-8.95 8.95c-3.53-2.84-7.86-4.71-12.59-5.23V17.21a2.66 2.66 0 0 0-5.32 0v12.64c-4.73.52-9.06 2.39-12.59 5.23L103 26.13a2.61 2.61 0 0 0-1.33-.72 2.65 2.65 0 0 0-2.43.72c-.81.81-.98 2.02-.52 3.01.13.27.29.53.52.75l8.95 8.95zm38.07 15.25c0 10.51-8.55 19.07-19.07 19.07-10.51 0-19.06-8.55-19.06-19.07 0-10.51 8.55-19.06 19.06-19.06 10.52-.01 19.07 8.55 19.07 19.06z"/></svg>