<svg xmlns="http://www.w3.org/2000/svg" viewBox="0 0 200 200" xmlnsV="https://vecta.io/nano"><path d="M102.21 139.69l7.74 17.77 30.91-60.68h-8.44zm51.81-62.4c7.46 10.68 11.86 23.65 11.86 37.64 0 16.84-6.36 32.23-16.8 43.89h-41.04l-14.69-33.73h1.8 5.39l-29.77-22.03-11.72 22.03h7.14l21.11 33.73H50.9c-10.44-11.66-16.8-27.04-16.8-43.89 0-35.26 27.84-64.13 62.69-65.8.67-1.76 1.47-3.56 2.37-5.38-38.86.45-70.36 32.2-70.36 71.18 0 39.26 31.94 71.2 71.2 71.2s71.2-31.94 71.2-71.2c0-16.03-5.33-30.84-14.31-42.76-.81 1.8-1.76 3.51-2.87 5.12zm-12.26 88.56c-11.38 9.34-25.92 14.96-41.75 14.96s-30.38-5.62-41.76-14.96h83.51zM100 58.95c0 15 12.2 27.2 27.2 27.2s27.2-12.2 27.2-27.2c0-14.6-25.01-42.63-26.07-43.82l-1.12-1.25-1.13 1.25C125.01 16.31 100 44.35 100 58.95zm6.94-1.03c1.1-.15 2.12.62 2.27 1.72.86 6.2 4.98 11.61 10.73 14.12 1.02.44 1.49 1.63 1.04 2.65a2.01 2.01 0 0 1-1.85 1.21 1.89 1.89 0 0 1-.8-.17c-7.03-3.07-12.06-9.68-13.12-17.26-.14-1.1.63-2.12 1.73-2.27z"/></svg>