<svg xmlns="http://www.w3.org/2000/svg" viewBox="0 0 175 62"><path fill="#fff" d="M80.862 44.4c-.119 1.706.773 4.112-.374 4.943-1.221.875-3.515.293-5.337.333-.608.011-1.226-.023-1.834-.04 0-.005-.005-.01-.005-.017l-.154-6.383c-1.084-.328-2.208-.944-3.043.435-.028 5.971-.051 11.943-.08 17.914h3.248c.017-3.04.04-6.079.057-9.118l7.37-.085c.255 3.068.255 6.14-.007 9.203h3.248c.08-6.118.227-12.231-.08-18.35-1.237-.225-2.838-1.355-3.009 1.165Zm41.706-1.164-.119 18.355h.465v-.051c0 .017 0 .034.006.045h2.782c-.011-5.39-.017-10.785-.028-16.18-.006-2.915-.023-2.92-3.106-2.17Zm-15.306-.012c.006.006.011.006.011.006-.005 0-.011 0-.011-.006-.062 3.972-.114 7.943-.17 11.915-1.726-1.836-2.759-4.141-4.224-6.147-1.442-1.977-2.464-4.287-4.53-5.785h-.006l-.125-.124-.17.051c-1.772-.616-2.578-.3-2.521 1.859.141 5.53.04 11.067.04 16.597h.925v-.01s0 .005.005.005h2.317c0-.26.005-.526.005-.785.193-.571.165-1.198.17-1.808.04-2.672-.05-5.344.04-8.04.046-.073.091-.157.154-.174.057-.017.17.01.199.056 2.026 2.729 3.695 5.7 5.603 8.514.596.875 1.175 1.762 2.18 2.242h3.248c-.012-5.389-.017-10.779-.023-16.168-.017-2.91-.011-2.91-3.117-2.198ZM59.374 58.913c0-.006 0-.006 0 0-2.317-.006-4.633-.006-6.95-.006-3.156-.073-3.934-2.373-4.575-4.802a31.052 31.052 0 0 0 0-6.163v-.006c.397-.791.619-1.684 1.357-2.271 2.452-.158 4.91-.367 7.352.124.09 4.277.096 4.282 3.15 3.367a8.78 8.78 0 0 0 0-3.152c0 .006-.005.011-.005.017v-.017c-.392-1.396-1.079-2.508-2.668-2.774h-.029c-2.759-.486-5.513-.508-8.272.017h-.028c-1.902.542-3.259 1.627-3.65 3.65-.273 2.745-.25 5.49-.006 8.236.51 3.486 3.162 5.034 5.967 6.446h8.799c-.21-.876.523-1.915-.442-2.666Zm90.905-.012c-.005 0-.005.006-.011.006-2.595-.034-5.201-.062-7.806-.096-.006 0-.017-.006-.023-.006-1.51-.638-2.515-1.773-3.196-3.22l-.069-8.683c.301-.361.608-.723.909-1.084 2.447-.543 4.911-.255 7.375-.176.142.3.289.6.431.899.006.005.006.01.006.01-.329 3.26-.159 3.424 2.759 2.622v-.005h.006v-.006c.295-1.209.244-2.418-.012-3.627-.005.006-.005.017-.011.023.006-.012.006-.023.006-.034-.909-.6-.954-2.028-2.232-2.266h-.062c-3.134-.4-6.268-.841-9.339.334-.023.005-.051.005-.074.011-1.947.74-2.799 2.231-2.969 4.203.005.034.005.062.011.096.028 2.56-.522 5.152.369 7.672 0 .011 0 .023.006.034.539 3.457 3.236 4.762 6.04 5.971h7.886c0-.005 0-.005.006-.011v.011c.159 0 .312 0 .466-.005-.069-.904.573-1.927-.472-2.672Zm-2.844-13.276c.006 0 .011 0 .017.006-.006 0-.011 0-.017-.006ZM118.287.125V.12C113.042.09 107.796.114 102.55.007c-1.261-.023-1.743.593-2.237 1.525-1.754 3.305-3.543 6.593-5.325 9.88-2.209 4.057-4.434 8.113-6.7 12.248-.93-.728-1.186-1.632-1.612-2.406-3.582-6.57-7.16-13.146-10.713-19.733C75.458.588 74.98-.027 73.72 0c-5.246.108-10.49.09-15.737.114-.006.006-.006.011-.012.017V.114c-.698.102-.51.66-.51 1.068-.012 11.558.005 23.117-.035 34.676-.005 1.118.375 1.434 1.46 1.406 3.088-.085 6.176-.073 9.27-.096h-.005.017c1.005-.565.443-1.508.448-2.231.052-7.926.034-15.852.034-24.502 2.538 4.492 4.707 8.395 6.95 12.254 2.798 4.802 5.217 9.819 8.38 14.411 2.764.249 5.523.22 8.282.012 2.555-3.526 4.406-7.458 6.575-11.203 2.85-4.926 5.62-9.898 8.425-14.852.142.04.273.068.414.107V36.79c.228.796.886.435 1.346.435 2.543.04 5.104-.096 7.647.062 1.743.107 2.181-.407 2.169-2.13-.085-11.016-.034-22.033-.068-33.054 0-.656.528-1.537-.483-1.978ZM35.25 45.444s0 .006 0 0c.018-.005.029-.016.046-.022.006-.006.011-.006.017-.011.942-.582.324-1.413.295-2.153 0-.006.006-.011.006-.017h-.011v-.005.005c-3.628-.604-7.262-.316-10.89-.13-.22.012-.431.356-.647.548-1.425.3-1.317 1.447-1.323 2.463-.022 3.588.035 7.18-.028 10.768-.034 1.859-.04 3.633 1.868 4.7H35.25v-.005h.465c-.147-.893.58-1.932-.46-2.678h-8.804a.932.932 0 0 0-.426-.09c0-2.113.006-4.232.011-6.35 1.136-.023 2.283.022 3.412-.09 1.749-.17 3.577.519 5.258-.436h-.023c.006 0 .017 0 .023-.005.425-1.746-.142-2.424-2.056-2.283-2.208.159-4.434 0-6.66-.022.018-1.345.04-2.69.058-4.034 3.071-.05 6.137-.102 9.203-.153Zm-9.225 6.994v.006-.006Zm.028-6.892a1.19 1.19 0 0 1 .426-.243 3.443 3.443 0 0 0-.426.26v-.017Zm-.017 6.881c.188-.158.386-.237.585-.277-.199.08-.392.175-.585.294v-.017Zm-.05-2.796v-.012.012s.005 0 0 0Zm147.372 2.807v-.005c-.744-.735-1.488-1.475-2.232-2.203-2.299-.396-4.61-.142-6.915-.153-.158-.226-.346-.345-.607-.164 0-.005-.006-.005-.006-.011a455.467 455.467 0 0 1-.085-3.876s0-.005.006-.005c.596-.684 1.402-.48 2.152-.486 2.077-.011 4.15-.04 6.222.011.993.023 1.556-.113 1.527-1.327-.028-1.113-.414-1.435-1.493-1.407-2.458.062-4.917-.068-7.369.045-1.794.09-3.514.537-3.969 2.684v.022c-.005-.006-.005-.017-.005-.023-.273 1.515-.256 3.034-.023 4.554.006-.006.006-.017.006-.023 0 .006 0 .017-.006.023.596 2.079 2.152 2.65 4.15 2.796 1.925.142 3.946-.638 5.791.492-.011 1.65-.017 3.294-.023 4.949-.091.135-.187.27-.278.412-.131.13-.267.215-.403.271.136-.079.267-.164.397-.27-1.459.033-2.929-.04-4.377.118-1.595.175-3.281-.616-4.786.43-.028.767-.051 1.53-.079 2.298h10.202c.755-.92 2.123-1.344 2.254-2.762.255-2.141.335-4.271-.051-6.39 0-.005 0-.005 0 0ZM14.392 43.207l-.006-.005.006.005c-.675-.581-1.476-.27-2.203-.282-4.065-.085-8.13-.119-12.189-.17v2.753c1.856-.006 3.707-.006 5.564-.006-.006 0-.006 0-.012-.006.006 0 .012 0 .012.006.062.983.142 1.966.181 2.95.148 3.62-.29 7.258.239 10.874v.034c-.08.147-.057.265.068.367.006-.017.006-.04.011-.056 0 .022-.005.04-.005.062-.051.548.272.819.743.977.358.294.716.582 1.08.87h.925l-.052-.463.188-15.48c1.805-.084 3.61-.163 5.416-.248.619-.712.528-1.446.034-2.18ZM6.28 49.478c-.006.175-.006.356-.011.531 0-.022-.006-.04-.006-.062v-1.412c.017.305.029.627.017.943Zm162.172-31.173c1.34-.848 2.907-1.277 3.776-2.706 2.594-4.265 1.26-10.299-2.669-13.417-2.378-1.887-5.143-1.989-7.755-2.023-11.576-.17-23.152-.045-34.728-.028-.142.141-.403.277-.403.424-.029 11.852-.017 23.699-.063 35.551-.005 1.158.585 1.164 1.431 1.158 12.195-.04 24.396-.068 36.591-.09.84.085 1.68.124 2.446-.328.421-.045.835-.09 1.267-.141 0-.006-.006-.006-.012-.006 0 0 .006 0 .012.006 4.235-1.226 6.279-3.666 6.483-8.073.199-4.66-.079-8.045-6.376-10.327Zm-5.643 8.192c-.443 1.474-1.845 1.418-2.878 1.96h-.006c-7.222-.028-14.443-.062-21.665-.09-.301-5.848-.301-5.853 5.632-5.848 5.235.006 10.475-.04 15.709.04 2.64.04 3.878 1.706 3.208 3.938ZM138.158 12.79c.148-1.277.074-2.582.097-3.875l.005-.006c7.25.08 14.5-.232 21.745.17l.005.005c2.788 1.763 2.64 3.926-.426 6.04h-.005s.005 0 .005-.006c-.073-.266-.221-.407-.511-.3-.005 0-.005 0-.011.006-6.296-.017-12.592-.096-18.888-.023-1.618.023-2.203-.4-2.016-2.01Zm28.387 23.818c.005-.006.011-.006.017-.006.006 0 .006.006.011.006h-.028Zm-125.748.108c4.951-.672 8.26-3.152 9.226-8.214l.12-1.746c.584-5.412.55-10.835.01-16.247l-.136-1.723C49.166 3.882 45.8 1.628 41.246.628 40.519.56 39.798.504 39.07.442h-.005c-.676-.125-1.351-.35-2.027-.35C25.003.08 12.961.101.919.124A.414.414 0 0 0 .5.114L0 .046v37.201c.159-.017.324-.04.483-.062v.006c12.047-.006 24.088-.012 36.136-.012-.006-.005-.011-.005-.017-.01h.023c.851.061 1.691.135 2.48-.3h.006c.557-.045 1.124-.096 1.686-.141-.011-.006-.017-.012-.028-.017.011 0 .023 0 .028.005Zm-8.396-8.971c-6.915-.333-13.859-.147-20.79-.18.033-6.074.062-12.153.09-18.226 7.659-.01 15.317-.028 22.965-.04 2.203.588 3.6 1.984 4.264 4.125.386 3.457.488 6.91-.063 10.355-1.13 2.955-3.071 4.124-6.466 3.966Zm5.683 9.056a.296.296 0 0 1 .056-.141c.029.005.051.011.08.017-.045.04-.091.073-.136.124Z"/></svg>