<svg xmlns="http://www.w3.org/2000/svg" viewBox="0 0 91 75"><mask id="HARLEY-DAVIDSON_OUTLINE_RGB_BLACK__a" width="91" height="75" x="0" y="0" maskUnits="userSpaceOnUse" style="mask-type:alpha"><path  d="M0 0h90.98v74.317H0V0Z"/></mask><g mask="url(#HARLEY-DAVIDSON_OUTLINE_RGB_BLACK__a)"><path  fill-rule="evenodd" d="M5.62 43.845h79.74V31.167H5.62v12.678ZM69.287 55.18s-10.29 9.49-23.797 12.915C31.984 64.67 21.697 55.18 21.697 55.18c3.066-1.855 4.1-4.25 4.446-5.732h38.695c.348 1.483 1.38 3.877 4.45 5.732Zm-47.68-37.87s11.595.615 23.882-8.61c12.287 9.225 23.882 8.61 23.882 8.61-3.76 3.855-4.386 6.93-4.462 8.254H26.068c-.075-1.324-.699-4.4-4.46-8.254Zm69.372 8.254H70.992c.117-3.207 4.22-4.74 4.22-4.74v-8.259C52.895 11.335 45.49 0 45.49 0s-7.404 11.336-29.722 12.565v8.26s4.103 1.532 4.22 4.739H0v23.884h19.921c-1.138 4.117-6.814 5.16-6.814 5.16C29.368 71.611 45.49 74.333 45.49 74.333s16.124-2.722 32.383-19.725c0 0-5.677-1.043-6.812-5.16H90.98V25.564Z" clip-rule="evenodd"/></g><path  fill-rule="evenodd" d="M80.61 55.783a1.28 1.28 0 0 1-1.272-1.288c0-.706.57-1.282 1.271-1.282.696 0 1.273.576 1.273 1.282 0 .713-.577 1.288-1.273 1.288Zm0-2.75a1.462 1.462 0 0 0 0 2.923c.79 0 1.444-.652 1.444-1.46a1.46 1.46 0 0 0-1.445-1.462Z" clip-rule="evenodd"/><path  fill-rule="evenodd" d="M80.64 54.441h-.412v-.604h.411c.214 0 .404.028.398.293-.006.27-.178.311-.398.311Zm.605.419a.502.502 0 0 0-.054-.233.245.245 0 0 0-.148-.096c.166-.077.243-.227.243-.407a.512.512 0 0 0-.058-.259c-.113-.22-.34-.24-.547-.24h-.69v1.787h.237v-.761h.405c.155 0 .255.017.297.054.042.035.072.114.077.233l.013.227c0 .067.01.187.047.247h.274a.601.601 0 0 1-.078-.252l-.018-.3Z" clip-rule="evenodd"/></svg>