<svg xmlns="http://www.w3.org/2000/svg" viewBox="0 0 289 41"><path fill="#fff" d="M0 40.746c.06-.372.266-.486.449-.623 4.022-3.041 7.869-6.295 11.815-9.428 3.945-3.132 7.861-6.303 11.792-9.458a531.043 531.043 0 0 0 5.132-4.151c.38-.312.768-.456 1.254-.456 2.737.015 5.482 0 8.219.007.776 0 .798.03.813.837v.076c.054 3.604.107 7.215.153 10.819v.228c.007.152-.038.327.114.425.205.13.334-.06.463-.16 2.091-1.603 4.129-3.276 6.151-4.956 2.775-2.304 5.55-4.608 8.379-6.843.38-.296.76-.448 1.262-.44 2.737.022 5.481.007 8.218.014.206 0 .411.008.616.015.251.008.373.137.38.38.008.206.016.411.016.616v22.11c0 .98-.008.988-.958.988H53.289c-.13 0-.258-.007-.38 0-.388.023-.57-.152-.555-.54.008-.228 0-.463 0-.691v-8.751c0-.297.06-.609-.076-.898-.251-.09-.388.092-.532.22-1.81 1.582-3.62 3.164-5.429 4.753-2.09 1.84-4.174 3.687-6.257 5.542a1.45 1.45 0 0 1-1.042.38c-3.786-.015-7.58-.007-11.366-.007-.776 0-.829-.061-.783-.844.198-3.193.038-6.394.091-9.595 0-.076 0-.152-.008-.228-.015-.122.016-.274-.121-.342-.175-.091-.282.045-.395.144-1.004.875-2.008 1.749-3.004 2.63-2.843 2.533-5.694 5.064-8.53 7.604-.502.448-1.027.646-1.718.646-4.175-.03-8.349-.015-12.515-.015-.205-.008-.403-.008-.669-.008Zm233.593-26.405c1.004-.395 1.931-.942 2.882-1.437a148.19 148.19 0 0 1 14.156-6.447c3.71-1.46 7.474-2.767 11.321-3.832 3.847-1.064 7.732-1.939 11.701-2.372a41.167 41.167 0 0 1 7.048-.175c1.901.13 3.725.578 5.421 1.498 1.216.669 1.946 1.673 2.319 2.995.213.753.099 1.453-.114 2.16-.631 2.098-1.779 3.9-3.201 5.535-3.102 3.565-6.645 6.645-10.454 9.427-3.802 2.775-7.778 5.3-11.732 7.839-.045-.038-.068-.076-.06-.122.007-.045.022-.068.038-.068 1.611-2.486 2.797-5.155 3.489-8.044.335-1.384.365-2.783.046-4.174-.357-1.574-1.216-2.783-2.6-3.627-1.559-.95-3.285-1.391-5.064-1.627-2.494-.334-5.003-.289-7.496-.137-4.592.282-9.116 1.095-13.617 2.03-1.346.282-2.676.685-4.068.73-.038-.038-.053-.076-.045-.114 0-.022.015-.038.03-.038Z"/><path fill="#fff" d="M236.786 20.933c4.197 0 8.394-.03 12.591.008 2.258.022 4.105.965 5.474 2.775.585.775.889 1.665.897 2.645.015 1.483.076 2.966.053 4.448-.03 2.433-.038 4.858-.053 7.291-.008.67.046 1.331.091 1.992.038.556-.045.624-.585.647-.281.015-.563.007-.844.007h-9.215c-.821-.007-.829-.007-.829-.806-.007-1.125 0-2.25 0-3.375 0-1.916-.015-3.84 0-5.756.016-1.505-.722-2.516-2.03-3.155-.996-.487-2.068-.745-3.162-.867-.738-.083-1.468-.182-2.213-.19-1.011-.007-1.011-.03-1.011 1.011-.008 1.665-.03 3.33-.023 4.988 0 2.28.015 4.554.023 6.835 0 .205.008.41-.008.616-.03.57-.068.616-.616.654-.41.03-.821.045-1.224.045h-10.058c-.206 0-.411-.007-.616-.015-.243-.008-.38-.137-.388-.38-.008-.205-.015-.41-.015-.616V21.921c0-.988.008-.988 1.034-.988h12.727ZM87.419 40.746c-4.015 0-8.037-.007-12.051 0-2.326 0-4.09-1.064-5.337-2.934-1.202-1.795-1.787-3.825-1.924-5.991-.144-2.289.213-4.479 1.148-6.57 1.004-2.242 2.677-3.702 5.11-4.227.319-.068.66-.083.988-.083 8.135-.008 16.278 0 24.413 0 .13 0 .258-.008.38 0 .517.03.585.076.593.578.015 1.482.015 2.965 0 4.447-.008.51-.076.57-.585.6-.51.031-1.027.039-1.536.046-4.66.008-9.314.039-13.974-.007-2.076-.023-3.209 1.292-3.612 2.714-.44 1.559-.296 3.041.639 4.395.616.89 1.467 1.406 2.592 1.39.259-.007.51 0 .768 0 4.524.077 9.055-.007 13.58 0 .54 0 1.071.062 1.611.077.342.015.517.175.517.517v4.531c0 .35-.16.517-.509.51-.228-.008-.464.007-.692.007h-12.12Zm16.232-12.088V17.306c.023-.615.046-.653.661-.661 1.103-.015 2.198-.008 3.3-.008h7.672c.228 0 .463.008.691.016.244.007.373.137.381.38.007.258.015.51.015.768v16.186c0 1.118 0 1.118 1.148 1.118h6.675c.715.023.844.13.761.806-.115.867-.061 1.733-.084 2.608-.015.51.038 1.019.084 1.528.053.593-.039.669-.616.692-.152.007-.304 0-.464 0h-19.106c-1.186 0-1.126.099-1.126-1.118.008-3.65.008-7.306.008-10.963Zm61.135 3.223c0-2.608.061-5.215-.022-7.823-.054-1.696 1.482-3.163 3.147-3.148 5.246.061 10.485.023 15.731.023.129 0 .258 0 .38.008.517.03.585.068.593.585.015 1.483.015 2.965 0 4.448-.008.578-.069.623-.707.63-1.551.009-3.11.009-4.676.009-.357 0-.715-.008-1.072.007-.608.023-.624.046-.646.677-.008.228 0 .463 0 .692v11.815c0 .935-.008.942-.92.942h-10.971c-.814-.015-.821-.015-.829-.806-.008-1.71 0-3.428 0-5.14-.008-.972-.008-1.945-.008-2.919Zm68.807-17.54v.168c-.106.129-.319.19-.35.06-.045-.19.183-.213.35-.228Zm29.309 15.024c.008.06.016.121.023.19-.045.068-.106.099-.144.015-.038-.099.023-.175.121-.205Zm-101.081.311c-.137-1.908-.661-3.717-1.741-5.337-1.498-2.25-3.528-3.452-6.295-3.414-3.84.053-7.679.015-11.519.015H129.98c-.783 0-.821.038-.829.83a337.24 337.24 0 0 0 0 3.763c0 .228.046.456.076.684.038.266.183.41.464.403.152-.008.304.008.464.008 5.938-.016 11.876-.023 17.814-.038.205 0 .41.007.615.007.32 0 .464.175.472.48.007.562.015 1.124.007 1.687-.007.692-.038.707-.76.692-.334-.008-.661-.023-.996-.023h-14.894c-.205 0-.411-.008-.616 0-1.452.053-2.539.692-3.201 2.007a7.356 7.356 0 0 0-.608 1.734c-.418 1.984-.312 3.923.684 5.732.654 1.194 1.597 1.878 3.087 1.87 7.527-.045 15.046-.03 22.573-.007 1.308.008 2.464-.372 3.536-1.064 1.573-1.012 2.547-2.487 3.201-4.197.707-1.893.889-3.847.752-5.832Zm-12.75 3.528c-.015.51-.008 1.026-.015 1.536-.008.304-.145.479-.464.471-.281-.007-.563.023-.844 0-2.501-.213-5.01-.068-7.519-.106-1.118-.015-1.118-.008-1.118-1.156 0-.38.008-.768.008-1.148-.008-.357.167-.502.517-.502.867.008 1.741 0 2.608 0h5.907c1.072 0 .95.069.92.905Zm71.126-7.367c-.099-1.178-.381-2.326-1.088-3.315-.714-1.011-1.604-1.604-2.942-1.596-7.322.038-14.643.038-21.965.007-3.132-.015-5.383 1.414-6.713 4.144-2.038 4.174-1.916 8.386.479 12.392 1.285 2.16 3.254 3.315 5.862 3.293 3.892-.03 7.785-.008 11.67-.008h12.058c.228 0 .464.008.692-.008.517-.03.57-.06.578-.585.015-1.43.015-2.866 0-4.296-.008-.585-.023-.608-.601-.638a44.551 44.551 0 0 0-2.683-.107c-3.962 0-7.93.015-11.891.023-1.301 0-2.608-.015-3.908-.03-.776-.008-.806-.046-.821-.844-.008-.304 0-.616 0-.92.007-1.034.007-1.034 1.072-1.034 5.398 0 10.803-.008 16.201.007 1.118.008 1.977-.44 2.684-1.254.373-.426.639-.92.844-1.452.479-1.232.578-2.502.472-3.779Zm-11.39 2.957c-.022.54-.083.601-.646.616-.616.016-1.224.008-1.84.008h-6.28c-.228 0-.456-.008-.692-.015-.311-.008-.456-.16-.448-.48.015-.562-.008-1.124.007-1.687.016-.555.069-.608.631-.616 1.224-.015 2.449-.008 3.673-.008h.691c1.377 0 2.76-.007 4.136 0 .715 0 .746.039.761.723.03.494.03.98.007 1.46Z"/></svg>