<svg xmlns="http://www.w3.org/2000/svg" viewBox="0 0 334 25"><path  d="M333.085 10.974c-.083-.122-.35-.114-.532-.168-4.645.031-9.283.077-13.929.092-1.026 0-1.824.015-1.855 1.437-.03 1.467.662 1.748 1.909 1.71a143.11 143.11 0 0 1 6.257 0c4.729.076 4.014-.76 4.189 4.243.069 1.832-.669 2.212-2.319 2.19a888.903 888.903 0 0 0-19.623-.008c-1.604.015-2.174-.487-2.129-2.098.091-3.3-.007-6.607.038-9.915.015-1.178-.159-2.068-1.581-2.121-1.346-.563-3.034-1.353-3.057 1.034-.038 4.197-.433 8.401.099 12.59.89 2.335 2.418 3.703 5.102 3.688 7.58-.046 15.16 0 22.748-.015 1.444 0 2.843-.213 3.9-1.361 1.468-1.582 2.023-9.481.783-11.298Zm-30.7-6.288c1.034-.045 2.068-.137 3.102-.137 8.576-.007 17.159-.007 25.735 0 1.103 0 2.426.327 2-1.573-1.156-1.529-2.767-1.673-4.539-1.665-7.436.022-14.871-.046-22.307-.077-1.954.115-3.991-.121-5.664 1.263-.198.714-.395 1.421-.586 2.136.738.616 1.483.829 2.259.053ZM23.212 8.328c-4.319-1.665-8.553-3.596-12.97-4.919C7.04 2.451 4.112.246 0 .839c6.569 6.28 12.203 13.267 22.413 10.933.092-.023.19.015.282-.007.882-.22 2.212.577 2.456-1.103.212-1.498-.837-1.916-1.94-2.334Zm-.958 4.882c-2.829-.1-5.664-.046-8.5-.039-.837 0-1.665-.068-2.388.586-3.596 3.269-7.23 6.5-11.16 10.028 1.953.357 3.367.327 4.812-.243 5.885-2.289 11.777-4.562 17.692-6.767 1.277-.479 2.182-.958 1.962-2.555-.251-1.764-1.582-.98-2.418-1.01Zm25.272 6.553c-4.577-5.604-10.363-7.77-17.456-6.577-.875.145-2.182-.684-2.502.973-.311 1.643.821 2.046 2.03 2.51 3.878 1.482 7.725 3.056 11.602 4.546 3.406 1.315 6.653 3.155 10.454 3.2.83-.212.51-.592.152-.988-1.436-1.208-3.117-2.235-4.28-3.664Zm115.17-15.236c4.911.038 9.83.022 14.742.022 4.911 0 9.83.023 14.742-.03.638-.008 1.68.692 1.878-.441.144-.806-.35-1.718-1.194-2.068-.852-.357-1.794-.692-2.707-.7-8.401-.045-16.81-.03-25.219-.022-1.163 0-2.258.235-3.132 1.064-.502.472-.89 1.11-.76 1.749.213 1.011 1.095.418 1.65.426Zm67.977-.997c0 5.368-.03 10.432.016 15.488.015 1.733.912 3.01 2.417 3.885 1.506.874 2.182.654 2.137-1.255-.084-3.763-.281-7.55.045-11.282.312-3.475-1.186-5.414-4.615-6.835Zm-39.733 6.843c-7.352.51-14.711.183-22.063.19-1.46 0-1.688.715-1.703 1.931-.016 1.468.737 1.605 1.976 1.582 6.037-.107 12.082.015 18.126-.084 1.551-.023 3.178.791 4.683-.25-.023-.936-.045-1.87-.076-2.799-.258-.296-.578-.592-.943-.57Z"/><path  d="M191.678 20.478c-6.607-.061-13.214-.038-19.829-.038-6.568 0-6.568 0-6.074-6.699v-.57c-.046-1.596-.213-3.208-.107-4.797.137-2.106-1.209-1.909-2.577-1.924-1.399-.015-2.6-.137-2.502 1.962.153 3.482.031 6.98.046 10.47.015 3.664.867 4.568 4.463 4.584 8.242.022 16.483-.008 24.732.015 1.164 0 2.251-.16 3.293-.662.653-.212.957-.684 1.018-1.345-.251-1.703-1.604-.989-2.463-.996ZM51.601.208c-1.026-.22-2.174-.471-3.087.434-1.771.364-3.315 1.224-4.79 2.22-2.356.805-4.706 1.611-7.063 2.417-1.611 1.02-3.413 1.605-5.23 2.137-.86.387-1.688.866-2.585 1.148-1.148.365-1.422 1.117-1.27 2.174.175 1.262 1.178.989 1.977 1.027.942.045 1.908-.092 2.836.022 5.306.662 10.005-.22 13.274-4.941 2.395-1.278 3.962-3.581 6.212-5.034 1.11-.737.79-1.376-.274-1.604Zm66.937 1.604c-.213-.121-.449-.16-.692-.175l-1.597-.41c-7.36.046-14.727.06-22.087.152-.965.015-2.075-.487-2.911.471-.267.753-.29 1.506.007 2.258.137.593.723.411 1.08.609h.692a8.882 8.882 0 0 0 3.178.144c.479-.06.95-.099 1.43-.152 6.773-.038 13.548-.068 20.329-.106l.251.342c1.156 2.364.609 4.181-1.954 5.466-2.273.061-4.539.16-6.812.183-3.414.038-6.827.023-10.241.023-.966 0-1.68.19-1.642 1.39.03.875-.069 1.742 1.231 1.734 6.539-.06 13.1.152 19.616-.25 4.265-.267 8.363-4.684 4.554-9.915-1.475-.593-2.957-1.178-4.432-1.764Zm141.597-.479a.386.386 0 0 1-.403.046c-.639.844-.297 1.81-.312 2.714-.045 3.566-.03 7.132-.015 10.705.008 1.163.084 2.334-1.505 2.532l-6.045-4.22a4361.387 4361.387 0 0 1-6.493-5.344c-1.094-.852-2.189-1.696-3.292-2.547l-4.584-3.49c-2.068-.502-4.136-.692-6.189.083 6.234 4.737 12.469 9.466 18.703 14.203 1.726 1.467 3.452 2.927 5.178 4.394.874.837 1.231 1.034 2.866 2.213.411.235.791.524 1.224.692 3.505 1.353 4.957.38 4.95-3.308-.008-4.896-.015-9.8-.015-14.696-.92-1.764-2.091-3.277-4.068-3.977Z"/><path d="M95.615 6.519c-.091 0-.19-.008-.282-.008-4.942.046-4.22-.6-4.265 4.128-.03 3.11.053 6.22.084 9.33.783 1.793 1.9 3.215 4.007 3.527 1.056-1.118.562-2.501.57-3.756.023-4.402-.069-8.812-.114-13.221Z"/></svg>