<svg xmlns="http://www.w3.org/2000/svg" viewBox="0 0 180 83"><path  d="M0 0v83h139V0H0Zm52.731 67.773a20.066 20.066 0 0 1-.753 1.54c-.425.727-1.451 1.162-2.677.58-1.963-.929-12.498-5.979-12.833-6.134-.371-.173-.976-.056-.976.99v2.823c0 .381.052 1.319-.724 1.871-.823.584-2.17 1.39-2.41 1.511-.338.172-1.206.848-1.218-.563-.023-2.804-.025-8.01-.023-8.3.002-.288.069-.843-.765-1.222-.751-.343-5.518-2.603-5.814-2.741-.384-.176-.672-.864.108-1.337.928-.563 5.566-3.284 5.887-3.514.542-.383.542-.751.542-1.873.006-1.264-.07-17.67-.06-17.935.014-.433-.042-.787.682-1.255.82-.53 1.703-1.108 1.991-1.294.455-.297 1.846-.883 1.825.701-.015 1.06 0 16.068 0 16.468.008.548.262 1.385 1.145.732C47.21 41 48.61 34.384 46.508 30.01c-4.295-8.936-26.608 5.326-36.265 13.312-1.518 1.255-1.483.7-1.483.094-.002-.718.032-3.367.09-3.857.083-.705.259-2.993 2.344-4.51 2.02-1.471 29.684-19.358 37.725-7.862 3.92 5.604 1.527 14.454-12.401 24.732-.851.628-1.01.833-1.01 1.967 0 1.134-.027 2.848 0 3.172.028.325.061 1.01.732 1.352h.005c.669.344 14.766 7.017 15.333 7.294.686.334 1.641.956 1.153 2.07Zm15.248 3.424c.004.228-.065.599-.459.615-.394.017-2.446.059-2.582.059-.202 0-.65-.078-.604-1.007.023-.49.181-15.563.208-16.752.021-.867-.085-1.047-.327-1.047-.974.017-1.854 3.573-3.99 3.462-1.822-.096-1.186-2.687-1.916-2.733-.823-.052-2.49 4.328-4.604 4.472-2.592.186-2.058-2.587-2.882-2.72-1.072-.178-3.714 6.257-7.328 4.618-3.013-1.369.736-11.579 5.691-10.642 1.83.348 1.358-1.805 3.443-1.372 1.201.257 1.251 1.758 1.251 2.768 0 2.166.799 2.897 1.71 2.897 1.43 0 2.373-3.71 2.406-3.817.574-1.836.964-3.977 2.242-3.977 2.07.017.936 5.377 2.294 5.441 1.612.076 3.255-7.787 5.228-7.787.15 0 .515 0 .523.85-.019 4.73-.304 26.582-.304 26.672Zm8.804-24.196c-1.502 1-3.952 1.245-4.976.092-1.023-1.153-.469-3.169 1.617-4.458 1.58-.977 3.634-.996 4.658.157h.004c1.026 1.153.417 3.064-1.303 4.209Zm20.352-3.114a38.029 38.029 0 0 1-2.881 3.706c-1.902 2.174-4.4 5.24-6.294 8.543-1.136 1.983-1.31 2.023-3.092-.754a3.506 3.506 0 0 1 .25-4.097c.165-.216 1.68-2.168 3.336-4.295 1.656-2.126 3.1-3.815 3.741-4.771.966-1.438 1.42-4.091-.106-5.512-1.237-1.15-2.759-2.595-4.181-4.108-1.422-1.513-.582-3.091.323-4.152 2.017-2.365 10.375-11.554 5.47-16.401-3.186-3.148-8.154 4.4-7.64 12.464.1 1.547.412 16.47.552 19.91.14 3.44-2.55 4.76-3.251 5.05-.765.318-1.562.553-1.337-1.55.386-3.613-.31-18.053-.102-23.272.572-14.638 14.66-20.096 17.652-13.023 3.095 7.314-3.649 13.39-8.483 17.02-1.357 1.02-2.237 2.217-.967 3.188 2.198 1.674 4.865 3.432 7.159 5.44 1.728 1.518 1.574 4.15-.149 6.614Zm33.034-9.384c-.228.496-1.904 3.846-4.348 3.604-2.882-.293-2.432-4.862-3.629-5.023-1.197-.161-2.79 7.488-5.697 7.115-1.343-.171-.527-2.58-1.23-2.62-.819-.04-1.668 4.621-4.485 4.565-2.668-.06-2.115-3.726-3.105-2.78-.709.676-3.51 5.942-6.584 5.423-2.283-.385-1.368-6.038 1.627-9.539 2.646-3.095 4.333-2.032 5.271-2.643.628-.408.845-1.252 1.898-1.076 2.042.341.74 5.023 2.555 5.726 1.766.686 3.13-8.174 5.565-8.275 2.211-.09.678 3.943 1.794 3.834.911-.09 1.655-5.441 4.212-5.441 2.344 0 1.601 9.026 5.451 6.586.538-.341.932.048.705.544Z"/></svg>